Model Std Three_CONVERTED.ufo
<glyph name="parenleft" format="2">
  <advance width="465"/>
  <unicode hex="0028"/>
  <outline>
    <contour>
      <point x="717" y="897" type="line"/>
      <point x="505" y="826"/>
      <point x="290" y="622"/>
      <point x="179" y="376" type="curve" smooth="yes"/>
      <point x="79" y="151"/>
      <point x="61" y="-118"/>
      <point x="160" y="-344" type="curve"/>
      <point x="164" y="-342" type="line"/>
      <point x="65" y="-100"/>
      <point x="103" y="158"/>
      <point x="200" y="373" type="curve" smooth="yes"/>
      <point x="311" y="617"/>
      <point x="509" y="823"/>
      <point x="719" y="893" type="curve"/>
    </contour>
  </outline>
</glyph>
<glyph name="plus" format="2">
  <advance width="472"/>
  <unicode hex="002B"/>
  <outline>
    <contour>
      <point x="299" y="484" type="line"/>
      <point x="235" y="321" type="line"/>
      <point x="81" y="321" type="line"/>
      <point x="81" y="316" type="line"/>
      <point x="233" y="316" type="line"/>
      <point x="171" y="156" type="line"/>
      <point x="176" y="156" type="line"/>
      <point x="238" y="316" type="line"/>
      <point x="409" y="316" type="line"/>
      <point x="409" y="321" type="line"/>
      <point x="240" y="321" type="line"/>
      <point x="304" y="484" type="line"/>
    </contour>
  </outline>
</glyph>
<glyph name="hyphen" format="2">
  <advance width="504"/>
  <unicode hex="002D"/>
  <outline>
    <contour>
      <point x="81" y="316" type="line"/>
      <point x="81" y="316"/>
      <point x="409" y="316"/>
      <point x="409" y="316" type="curve"/>
      <point x="409" y="321" type="line"/>
      <point x="409" y="321"/>
      <point x="81" y="321"/>
      <point x="81" y="321" type="curve"/>
    </contour>
  </outline>
</glyph>
<glyph name="period" format="2">
  <advance width="229"/>
  <unicode hex="002E"/>
  <outline>
    <contour>
      <point x="10" y="15" type="curve"/>
      <point x="8" y="6"/>
      <point x="12" y="-3"/>
      <point x="23" y="-3" type="curve" smooth="yes"/>
      <point x="33" y="-3"/>
      <point x="44" y="4"/>
      <point x="47" y="15" type="curve"/>
      <point x="51" y="26"/>
      <point x="45" y="34"/>
      <point x="35" y="34" type="curve" smooth="yes"/>
      <point x="24" y="34"/>
      <point x="14" y="26"/>
    </contour>
  </outline>
</glyph>
<glyph name="one" format="2">
  <advance width="302"/>
  <unicode hex="0031"/>
  <outline>
    <contour>
      <point x="89" y="209" type="line"/>
      <point x="81" y="233"/>
      <point x="78" y="256"/>
      <point x="78" y="278" type="curve" smooth="yes"/>
      <point x="82" y="404"/>
      <point x="217" y="499"/>
      <point x="331" y="571" type="curve"/>
      <point x="237" y="438"/>
      <point x="120" y="211"/>
      <point x="41" y="1" type="curve"/>
      <point x="59" y="1" type="line"/>
      <point x="141" y="218"/>
      <point x="253" y="448"/>
      <point x="341" y="577" type="curve"/>
      <point x="377" y="599" type="line" smooth="yes"/>
      <point x="407" y="618"/>
      <point x="440" y="640"/>
      <point x="457" y="654" type="curve" smooth="yes"/>
      <point x="478" y="671"/>
      <point x="471" y="688"/>
      <point x="453" y="688" type="curve" smooth="yes"/>
      <point x="427" y="688"/>
      <point x="385" y="646"/>
      <point x="337" y="579" type="curve"/>
      <point x="226" y="510"/>
      <point x="78" y="421"/>
      <point x="74" y="288" type="curve" smooth="yes"/>
      <point x="73" y="264"/>
      <point x="78" y="235"/>
      <point x="86" y="211" type="curve"/>
    </contour>
    <contour>
      <point x="446" y="679" type="curve" smooth="yes"/>
      <point x="460" y="679"/>
      <point x="463" y="666"/>
      <point x="448" y="653" type="curve" smooth="yes"/>
      <point x="431" y="639"/>
      <point x="405" y="622"/>
      <point x="375" y="603" type="curve" smooth="yes"/>
      <point x="346" y="584" type="line"/>
      <point x="387" y="643"/>
      <point x="422" y="679"/>
    </contour>
  </outline>
</glyph>
<glyph name="four" format="2">
  <advance width="517"/>
  <unicode hex="0034"/>
  <outline>
    <contour>
      <point x="344" y="843" type="line"/>
      <point x="395" y="830"/>
      <point x="409" y="757"/>
      <point x="408" y="713" type="curve" smooth="yes"/>
      <point x="402" y="480"/>
      <point x="157" y="172"/>
      <point x="1" y="39" type="curve"/>
      <point x="-24" y="37"/>
      <point x="-38" y="22"/>
      <point x="-38" y="11" type="curve" smooth="yes"/>
      <point x="-38" y="8"/>
      <point x="-37" y="5"/>
      <point x="-36" y="2" type="curve"/>
      <point x="-23" y="1" type="line"/>
      <point x="-24" y="4"/>
      <point x="-24" y="7"/>
      <point x="-24" y="9" type="curve" smooth="yes"/>
      <point x="-24" y="11" type="line"/>
      <point x="-23" y="11" type="line"/>
      <point x="-23" y="14" type="line"/>
      <point x="-3" y="30" type="line"/>
      <point x="2" y="32"/>
      <point x="8" y="33"/>
      <point x="16" y="33" type="curve" smooth="yes"/>
      <point x="112" y="33"/>
      <point x="164" y="-12"/>
      <point x="276" y="-20" type="curve"/>
      <point x="254" y="-73"/>
      <point x="234" y="-125"/>
      <point x="216" y="-174" type="curve"/>
      <point x="234" y="-174" type="line"/>
      <point x="252" y="-125"/>
      <point x="272" y="-74"/>
      <point x="293" y="-21" type="curve"/>
      <point x="299" y="-22"/>
      <point x="306" y="-22"/>
      <point x="313" y="-22" type="curve" smooth="yes"/>
      <point x="362" y="-22"/>
      <point x="416" y="-11"/>
      <point x="453" y="15" type="curve" smooth="yes"/>
      <point x="486" y="38"/>
      <point x="505" y="79"/>
      <point x="502" y="123" type="curve"/>
      <point x="498" y="123" type="line"/>
      <point x="502" y="83"/>
      <point x="477" y="46"/>
      <point x="444" y="23" type="curve" smooth="yes"/>
      <point x="407" y="-3"/>
      <point x="359" y="-18"/>
      <point x="313" y="-18" type="curve" smooth="yes"/>
      <point x="306" y="-18"/>
      <point x="300" y="-17"/>
      <point x="294" y="-17" type="curve"/>
      <point x="398" y="243"/>
      <point x="527" y="534"/>
      <point x="607" y="616" type="curve"/>
      <point x="604" y="617" type="line"/>
      <point x="518" y="528"/>
      <point x="382" y="240"/>
      <point x="277" y="-16" type="curve"/>
      <point x="162" y="-8"/>
      <point x="115" y="38"/>
      <point x="7" y="39" type="curve"/>
      <point x="164" y="176"/>
      <point x="410" y="481"/>
      <point x="415" y="714" type="curve" smooth="yes"/>
      <point x="416" y="759"/>
      <point x="397" y="836"/>
      <point x="345" y="848" type="curve"/>
    </contour>
  </outline>
</glyph>
<glyph name="eight" format="2">
  <advance width="563"/>
  <unicode hex="0038"/>
  <outline>
    <contour>
      <point x="201" y="-30" type="line" smooth="yes"/>
      <point x="371" y="-30"/>
      <point x="551" y="142"/>
      <point x="551" y="316" type="curve" smooth="yes"/>
      <point x="551" y="414"/>
      <point x="494" y="496"/>
      <point x="464" y="584" type="curve"/>
      <point x="557" y="641"/>
      <point x="628" y="695"/>
      <point x="628" y="757" type="curve" smooth="yes"/>
      <point x="628" y="809"/>
      <point x="593" y="826"/>
      <point x="560" y="826" type="curve" smooth="yes"/>
      <point x="491" y="826"/>
      <point x="434" y="761"/>
      <point x="434" y="671" type="curve" smooth="yes"/>
      <point x="434" y="640"/>
      <point x="440" y="610"/>
      <point x="450" y="581" type="curve"/>
      <point x="269" y="473"/>
      <point x="9" y="358"/>
      <point x="9" y="157" type="curve" smooth="yes"/>
      <point x="9" y="32"/>
      <point x="85" y="-27"/>
      <point x="196" y="-30" type="curve" smooth="yes"/>
    </contour>
    <contour>
      <point x="201" y="-25" type="curve" smooth="yes"/>
      <point x="196" y="-25" type="line" smooth="yes"/>
      <point x="71" y="-20"/>
      <point x="22" y="51"/>
      <point x="22" y="151" type="curve" smooth="yes"/>
      <point x="22" y="349"/>
      <point x="272" y="468"/>
      <point x="451" y="576" type="curve"/>
      <point x="481" y="488"/>
      <point x="538" y="403"/>
      <point x="538" y="306" type="curve" smooth="yes"/>
      <point x="538" y="134"/>
      <point x="360" y="-25"/>
    </contour>
    <contour>
      <point x="618" y="757" type="curve" smooth="yes"/>
      <point x="618" y="695"/>
      <point x="552" y="642"/>
      <point x="463" y="588" type="curve"/>
      <point x="453" y="619"/>
      <point x="446" y="650"/>
      <point x="446" y="683" type="curve" smooth="yes"/>
      <point x="446" y="768"/>
      <point x="495" y="822"/>
      <point x="560" y="822" type="curve" smooth="yes"/>
      <point x="586" y="822"/>
      <point x="616" y="806"/>
    </contour>
  </outline>
</glyph>
<glyph name="nine" format="2">
  <advance width="498"/>
  <unicode hex="0039"/>
  <outline>
    <contour>
      <point x="-144" y="-184" type="line"/>
      <point x="-84" y="-201"/>
      <point x="36" y="-165"/>
      <point x="138" y="-99" type="curve" smooth="yes"/>
      <point x="344" y="32"/>
      <point x="559" y="273"/>
      <point x="559" y="513" type="curve" smooth="yes"/>
      <point x="559" y="597"/>
      <point x="527" y="684"/>
      <point x="404" y="684" type="curve" smooth="yes"/>
      <point x="250" y="684"/>
      <point x="32" y="491"/>
      <point x="32" y="296" type="curve" smooth="yes"/>
      <point x="32" y="203"/>
      <point x="88" y="141"/>
      <point x="166" y="141" type="curve" smooth="yes"/>
      <point x="247" y="141"/>
      <point x="315" y="180"/>
      <point x="370" y="240" type="curve" smooth="yes"/>
      <point x="413" y="288"/>
      <point x="449" y="346"/>
      <point x="461" y="425" type="curve"/>
      <point x="457" y="425" type="line"/>
      <point x="444" y="345"/>
      <point x="404" y="282"/>
      <point x="368" y="243" type="curve" smooth="yes"/>
      <point x="285" y="153"/>
      <point x="198" y="146"/>
      <point x="170" y="146" type="curve" smooth="yes"/>
      <point x="98" y="146"/>
      <point x="45" y="193"/>
      <point x="45" y="279" type="curve" smooth="yes"/>
      <point x="45" y="438"/>
      <point x="213" y="679"/>
      <point x="404" y="679" type="curve" smooth="yes"/>
      <point x="515" y="679"/>
      <point x="545" y="596"/>
      <point x="545" y="515" type="curve" smooth="yes"/>
      <point x="545" y="272"/>
      <point x="324" y="28"/>
      <point x="137" y="-95" type="curve" smooth="yes"/>
      <point x="52" y="-150"/>
      <point x="-68" y="-196"/>
      <point x="-144" y="-180" type="curve"/>
    </contour>
  </outline>
</glyph>
<glyph name="question" format="2">
  <advance width="575"/>
  <unicode hex="003F"/>
  <outline>
    <contour>
      <point x="98" y="124" type="line"/>
      <point x="122" y="372"/>
      <point x="572" y="488"/>
      <point x="572" y="729" type="curve" smooth="yes"/>
      <point x="572" y="819"/>
      <point x="488" y="879"/>
      <point x="395" y="879" type="curve" smooth="yes"/>
      <point x="288" y="879"/>
      <point x="175" y="797"/>
      <point x="175" y="711" type="curve" smooth="yes"/>
      <point x="175" y="689"/>
      <point x="187" y="652"/>
      <point x="213" y="650" type="curve"/>
      <point x="214" y="654" type="line"/>
      <point x="191" y="657"/>
      <point x="187" y="684"/>
      <point x="187" y="703" type="curve" smooth="yes"/>
      <point x="187" y="790"/>
      <point x="295" y="875"/>
      <point x="399" y="875" type="curve" smooth="yes"/>
      <point x="482" y="875"/>
      <point x="555" y="823"/>
      <point x="555" y="724" type="curve" smooth="yes"/>
      <point x="555" y="483"/>
      <point x="109" y="364"/>
      <point x="86" y="124" type="curve"/>
    </contour>
    <contour>
      <point x="5" y="15" type="curve"/>
      <point x="2" y="4"/>
      <point x="7" y="-8"/>
      <point x="21" y="-8" type="curve" smooth="yes"/>
      <point x="34" y="-8"/>
      <point x="48" y="1"/>
      <point x="52" y="15" type="curve"/>
      <point x="57" y="29"/>
      <point x="49" y="39"/>
      <point x="37" y="39" type="curve" smooth="yes"/>
      <point x="23" y="39"/>
      <point x="10" y="29"/>
    </contour>
  </outline>
</glyph>
<glyph name="K" format="2">
  <advance width="840"/>
  <unicode hex="004B"/>
  <outline>
    <contour>
      <point x="470" y="976" type="curve" smooth="yes"/>
      <point x="469" y="976" type="line" smooth="yes"/>
      <point x="235" y="976"/>
      <point x="-32" y="835"/>
      <point x="-32" y="595" type="curve" smooth="yes"/>
      <point x="-32" y="497"/>
      <point x="26" y="390"/>
      <point x="152" y="387" type="curve" smooth="yes"/>
      <point x="280" y="387"/>
      <point x="405" y="499"/>
      <point x="405" y="632" type="curve" smooth="yes"/>
      <point x="405" y="716"/>
      <point x="344" y="760"/>
      <point x="276" y="760" type="curve" smooth="yes"/>
      <point x="189" y="760"/>
      <point x="106" y="688"/>
      <point x="106" y="616" type="curve" smooth="yes"/>
      <point x="106" y="599"/>
      <point x="114" y="586"/>
      <point x="124" y="571" type="curve"/>
      <point x="128" y="573" type="line"/>
      <point x="120" y="586"/>
      <point x="116" y="599"/>
      <point x="116" y="613" type="curve" smooth="yes"/>
      <point x="116" y="685"/>
      <point x="189" y="755"/>
      <point x="275" y="755" type="curve" smooth="yes"/>
      <point x="336" y="755"/>
      <point x="391" y="717"/>
      <point x="391" y="633" type="curve" smooth="yes"/>
      <point x="391" y="502"/>
      <point x="278" y="396"/>
      <point x="161" y="391" type="curve" smooth="yes"/>
      <point x="31" y="391"/>
      <point x="-21" y="490"/>
      <point x="-21" y="583" type="curve" smooth="yes"/>
      <point x="-21" y="774"/>
      <point x="181" y="968"/>
      <point x="470" y="971" type="curve" smooth="yes"/>
      <point x="615" y="971"/>
      <point x="777" y="926"/>
      <point x="777" y="858" type="curve" smooth="yes"/>
      <point x="777" y="828"/>
      <point x="732" y="815"/>
      <point x="703" y="798" type="curve" smooth="yes"/>
      <point x="634" y="757"/>
      <point x="534" y="633"/>
      <point x="461" y="505" type="curve"/>
      <point x="459" y="501" type="line"/>
      <point x="420" y="432"/>
      <point x="382" y="361"/>
      <point x="354" y="307" type="curve" smooth="yes"/>
      <point x="291" y="188"/>
      <point x="156" y="-13"/>
      <point x="-5" y="-13" type="curve" smooth="yes"/>
      <point x="-46" y="-13"/>
      <point x="-118" y="14"/>
      <point x="-118" y="83" type="curve" smooth="yes"/>
      <point x="-118" y="97"/>
      <point x="-115" y="111"/>
      <point x="-109" y="128" type="curve"/>
      <point x="-110" y="129" type="line"/>
      <point x="-118" y="109"/>
      <point x="-122" y="90"/>
      <point x="-122" y="75" type="curve" smooth="yes"/>
      <point x="-122" y="3"/>
      <point x="-46" y="-20"/>
      <point x="-1" y="-20" type="curve" smooth="yes"/>
      <point x="189" y="-20"/>
      <point x="303" y="163"/>
      <point x="383" y="316" type="curve" smooth="yes"/>
      <point x="408" y="367"/>
      <point x="440" y="434"/>
      <point x="476" y="501" type="curve" smooth="yes"/>
      <point x="478" y="505" type="line" smooth="yes"/>
      <point x="546" y="631"/>
      <point x="643" y="755"/>
      <point x="704" y="793" type="curve" smooth="yes"/>
      <point x="738" y="815"/>
      <point x="788" y="825"/>
      <point x="788" y="858" type="curve" smooth="yes"/>
      <point x="788" y="934"/>
      <point x="608" y="976"/>
    </contour>
    <contour>
      <point x="545" y="367" type="line"/>
      <point x="662" y="323"/>
      <point x="565" y="-107"/>
      <point x="687" y="-231" type="curve" smooth="yes"/>
      <point x="713" y="-257"/>
      <point x="764" y="-284"/>
      <point x="818" y="-235" type="curve"/>
      <point x="816" y="-233" type="line"/>
      <point x="783" y="-267"/>
      <point x="722" y="-266"/>
      <point x="689" y="-227" type="curve" smooth="yes"/>
      <point x="636" y="-164"/>
      <point x="637" y="-38"/>
      <point x="633" y="88" type="curve" smooth="yes"/>
      <point x="629" y="202"/>
      <point x="625" y="315"/>
      <point x="561" y="362" type="curve"/>
      <point x="566" y="372" type="line"/>
      <point x="655" y="397"/>
      <point x="754" y="501"/>
      <point x="856" y="610" type="curve" smooth="yes"/>
      <point x="984" y="745"/>
      <point x="1119" y="889"/>
      <point x="1253" y="889" type="curve" smooth="yes"/>
      <point x="1306" y="889"/>
      <point x="1354" y="860"/>
      <point x="1341" y="818" type="curve"/>
      <point x="1346" y="817" type="line"/>
      <point x="1360" y="859"/>
      <point x="1306" y="907"/>
      <point x="1242" y="907" type="curve" smooth="yes"/>
      <point x="1111" y="907"/>
      <point x="979" y="747"/>
      <point x="854" y="614" type="curve" smooth="yes"/>
      <point x="746" y="500"/>
      <point x="639" y="386"/>
      <point x="545" y="373" type="curve"/>
    </contour>
  </outline>
</glyph>
<glyph name="M" format="2">
  <advance width="1167"/>
  <unicode hex="004D"/>
  <outline>
    <contour>
      <point x="832" y="870" type="curve"/>
      <point x="815" y="860"/>
      <point x="802" y="845"/>
      <point x="790" y="826" type="curve"/>
      <point x="647" y="728"/>
      <point x="495" y="455"/>
      <point x="419" y="332" type="curve" smooth="yes"/>
      <point x="329" y="189"/>
      <point x="166" y="-64"/>
      <point x="-35" y="-52" type="curve" smooth="yes"/>
      <point x="-95" y="-49"/>
      <point x="-191" y="9"/>
      <point x="-145" y="117" type="curve"/>
      <point x="-146" y="118" type="line"/>
      <point x="-198" y="-1"/>
      <point x="-104" y="-56"/>
      <point x="-35" y="-59" type="curve" smooth="yes"/>
      <point x="206" y="-72"/>
      <point x="337" y="163"/>
      <point x="451" y="347" type="curve" smooth="yes"/>
      <point x="520" y="460"/>
      <point x="651" y="724"/>
      <point x="785" y="818" type="curve"/>
      <point x="743" y="741"/>
      <point x="736" y="607"/>
      <point x="736" y="502" type="curve" smooth="yes"/>
      <point x="736" y="437" type="line"/>
      <point x="592" y="268"/>
      <point x="481" y="98"/>
      <point x="469" y="4" type="curve" smooth="yes"/>
      <point x="468" y="-4"/>
      <point x="467" y="-12"/>
      <point x="467" y="-19" type="curve" smooth="yes"/>
      <point x="467" y="-75"/>
      <point x="496" y="-105"/>
      <point x="531" y="-105" type="curve" smooth="yes"/>
      <point x="612" y="-105"/>
      <point x="727" y="45"/>
      <point x="742" y="194" type="curve" smooth="yes"/>
      <point x="750" y="277"/>
      <point x="751" y="362"/>
      <point x="750" y="444" type="curve"/>
      <point x="953" y="684"/>
      <point x="1218" y="914"/>
      <point x="1341" y="914" type="curve" smooth="yes"/>
      <point x="1350" y="914"/>
      <point x="1353" y="910"/>
      <point x="1352" y="904" type="curve"/>
      <point x="1351" y="892"/>
      <point x="1332" y="869"/>
      <point x="1299" y="835" type="curve" smooth="yes"/>
      <point x="1120" y="654"/>
      <point x="882" y="247"/>
      <point x="882" y="-35" type="curve" smooth="yes"/>
      <point x="882" y="-121"/>
      <point x="917" y="-194"/>
      <point x="1003" y="-194" type="curve" smooth="yes"/>
      <point x="1092" y="-194"/>
      <point x="1118" y="-130"/>
      <point x="1119" y="-101" type="curve" smooth="yes"/>
      <point x="1119" y="-89"/>
      <point x="1114" y="-62"/>
      <point x="1091" y="-53" type="curve"/>
      <point x="1090" y="-55" type="line"/>
      <point x="1108" y="-65"/>
      <point x="1113" y="-83"/>
      <point x="1112" y="-93" type="curve"/>
      <point x="1112" y="-121"/>
      <point x="1087" y="-190"/>
      <point x="1003" y="-190" type="curve" smooth="yes"/>
      <point x="931" y="-190"/>
      <point x="898" y="-122"/>
      <point x="898" y="-41" type="curve" smooth="yes"/>
      <point x="898" y="221"/>
      <point x="1138" y="666"/>
      <point x="1305" y="834" type="curve" smooth="yes"/>
      <point x="1339" y="868"/>
      <point x="1366" y="895"/>
      <point x="1367" y="909" type="curve"/>
      <point x="1369" y="918"/>
      <point x="1363" y="923"/>
      <point x="1352" y="923" type="curve" smooth="yes"/>
      <point x="1222" y="923"/>
      <point x="956" y="692"/>
      <point x="750" y="453" type="curve"/>
      <point x="749" y="493"/>
      <point x="749" y="532"/>
      <point x="749" y="570" type="curve" smooth="yes"/>
      <point x="749" y="664"/>
      <point x="762" y="766"/>
      <point x="795" y="825" type="curve"/>
      <point x="810" y="834"/>
      <point x="825" y="842"/>
      <point x="840" y="847" type="curve" smooth="yes"/>
      <point x="894" y="868"/>
      <point x="887" y="895"/>
    </contour>
    <contour>
      <point x="482" y="2" type="curve" smooth="yes"/>
      <point x="494" y="92"/>
      <point x="598" y="262"/>
      <point x="736" y="428" type="curve"/>
      <point x="736" y="362"/>
      <point x="732" y="292"/>
      <point x="728" y="223" type="curve" smooth="yes"/>
      <point x="719" y="81"/>
      <point x="604" y="-98"/>
      <point x="525" y="-98" type="curve" smooth="yes"/>
      <point x="496" y="-98"/>
      <point x="479" y="-79"/>
      <point x="479" y="-32" type="curve" smooth="yes"/>
      <point x="479" y="-22"/>
      <point x="480" y="-11"/>
    </contour>
    <contour>
      <point x="758" y="925" type="line"/>
      <point x="730" y="856"/>
      <point x="679" y="831"/>
      <point x="602" y="831" type="curve" smooth="yes"/>
      <point x="501" y="831"/>
      <point x="388" y="876"/>
      <point x="305" y="876" type="curve" smooth="yes"/>
      <point x="143" y="876"/>
      <point x="1" y="727"/>
      <point x="1" y="580" type="curve" smooth="yes"/>
      <point x="1" y="481"/>
      <point x="59" y="373"/>
      <point x="185" y="370" type="curve" smooth="yes"/>
      <point x="313" y="370"/>
      <point x="438" y="482"/>
      <point x="438" y="615" type="curve" smooth="yes"/>
      <point x="438" y="699"/>
      <point x="377" y="743"/>
      <point x="309" y="743" type="curve" smooth="yes"/>
      <point x="222" y="743"/>
      <point x="139" y="671"/>
      <point x="139" y="599" type="curve" smooth="yes"/>
      <point x="139" y="582"/>
      <point x="147" y="569"/>
      <point x="157" y="554" type="curve"/>
      <point x="161" y="556" type="line"/>
      <point x="153" y="569"/>
      <point x="149" y="582"/>
      <point x="149" y="596" type="curve" smooth="yes"/>
      <point x="149" y="668"/>
      <point x="222" y="738"/>
      <point x="308" y="738" type="curve" smooth="yes"/>
      <point x="369" y="738"/>
      <point x="424" y="700"/>
      <point x="424" y="616" type="curve" smooth="yes"/>
      <point x="424" y="485"/>
      <point x="311" y="379"/>
      <point x="194" y="374" type="curve" smooth="yes"/>
      <point x="64" y="374"/>
      <point x="12" y="474"/>
      <point x="12" y="568" type="curve" smooth="yes"/>
      <point x="12" y="696"/>
      <point x="141" y="869"/>
      <point x="313" y="869" type="curve" smooth="yes"/>
      <point x="391" y="869"/>
      <point x="495" y="826"/>
      <point x="590" y="826" type="curve" smooth="yes"/>
      <point x="673" y="826"/>
      <point x="731" y="849"/>
      <point x="765" y="919" type="curve"/>
    </contour>
    <contour>
      <point x="832" y="866" type="curve"/>
      <point x="862" y="881"/>
      <point x="866" y="864"/>
      <point x="840" y="853" type="curve" smooth="yes"/>
      <point x="827" y="848"/>
      <point x="814" y="841"/>
      <point x="800" y="833" type="curve"/>
      <point x="809" y="847"/>
      <point x="820" y="859"/>
    </contour>
  </outline>
</glyph>
<glyph name="T" format="2">
  <advance width="586"/>
  <unicode hex="0054"/>
  <outline>
    <contour>
      <point x="734" y="798" type="line"/>
      <point x="565" y="743"/>
      <point x="431" y="445"/>
      <point x="346" y="283" type="curve" smooth="yes"/>
      <point x="279" y="156"/>
      <point x="129" y="-62"/>
      <point x="-44" y="-52" type="curve" smooth="yes"/>
      <point x="-96" y="-49"/>
      <point x="-178" y="1"/>
      <point x="-140" y="94" type="curve"/>
      <point x="-141" y="95" type="line"/>
      <point x="-185" y="-8"/>
      <point x="-103" y="-55"/>
      <point x="-44" y="-58" type="curve" smooth="yes"/>
      <point x="163" y="-69"/>
      <point x="285" y="127"/>
      <point x="371" y="291" type="curve" smooth="yes"/>
      <point x="451" y="447"/>
      <point x="570" y="747"/>
      <point x="732" y="787" type="curve"/>
    </contour>
    <contour>
      <point x="33" y="509" type="line"/>
      <point x="19" y="528"/>
      <point x="15" y="551"/>
      <point x="20" y="573" type="curve"/>
      <point x="28" y="649"/>
      <point x="112" y="719"/>
      <point x="202" y="719" type="curve" smooth="yes"/>
      <point x="279" y="719"/>
      <point x="349" y="667"/>
      <point x="336" y="551" type="curve" smooth="yes"/>
      <point x="319" y="413"/>
      <point x="201" y="304"/>
      <point x="70" y="299" type="curve" smooth="yes"/>
      <point x="-79" y="299"/>
      <point x="-139" y="413"/>
      <point x="-139" y="520" type="curve" smooth="yes"/>
      <point x="-139" y="729"/>
      <point x="86" y="954"/>
      <point x="395" y="954" type="curve" smooth="yes"/>
      <point x="626" y="954"/>
      <point x="904" y="817"/>
      <point x="1120" y="817" type="curve" smooth="yes"/>
      <point x="1180" y="817"/>
      <point x="1232" y="829"/>
      <point x="1276" y="862" type="curve"/>
      <point x="1274" y="866" type="line"/>
      <point x="1230" y="833"/>
      <point x="1178" y="821"/>
      <point x="1120" y="821" type="curve" smooth="yes"/>
      <point x="903" y="821"/>
      <point x="625" y="960"/>
      <point x="391" y="960" type="curve" smooth="yes"/>
      <point x="75" y="960"/>
      <point x="-148" y="746"/>
      <point x="-148" y="532" type="curve" smooth="yes"/>
      <point x="-148" y="420"/>
      <point x="-83" y="299"/>
      <point x="60" y="295" type="curve" smooth="yes"/>
      <point x="199" y="295"/>
      <point x="332" y="409"/>
      <point x="349" y="550" type="curve" smooth="yes"/>
      <point x="363" y="665"/>
      <point x="288" y="723"/>
      <point x="203" y="723" type="curve" smooth="yes"/>
      <point x="109" y="723"/>
      <point x="19" y="651"/>
      <point x="10" y="573" type="curve"/>
      <point x="5" y="548"/>
      <point x="13" y="527"/>
      <point x="28" y="507" type="curve"/>
    </contour>
  </outline>
</glyph>
<glyph name="W" format="2">
  <advance width="1308"/>
  <unicode hex="0057"/>
  <outline>
    <contour>
      <point x="826" y="-55" type="curve"/>
      <point x="843" y="-45"/>
      <point x="858" y="-29"/>
      <point x="870" y="-10" type="curve"/>
      <point x="1019" y="88"/>
      <point x="1193" y="360"/>
      <point x="1270" y="483" type="curve" smooth="yes"/>
      <point x="1357" y="623"/>
      <point x="1506" y="870"/>
      <point x="1710" y="870" type="curve" smooth="yes"/>
      <point x="1815" y="870"/>
      <point x="1868" y="781"/>
      <point x="1825" y="698" type="curve"/>
      <point x="1827" y="697" type="line"/>
      <point x="1885" y="797"/>
      <point x="1806" y="875"/>
      <point x="1705" y="875" type="curve" smooth="yes"/>
      <point x="1476" y="875"/>
      <point x="1354" y="646"/>
      <point x="1243" y="467" type="curve" smooth="yes"/>
      <point x="1173" y="353"/>
      <point x="1015" y="92"/>
      <point x="875" y="-3" type="curve"/>
      <point x="921" y="73"/>
      <point x="938" y="202"/>
      <point x="938" y="307" type="curve" smooth="yes"/>
      <point x="938" y="324" type="line"/>
      <point x="1066" y="460"/>
      <point x="1157" y="616"/>
      <point x="1157" y="757" type="curve" smooth="yes"/>
      <point x="1155" y="812"/>
      <point x="1127" y="867"/>
      <point x="1068" y="867" type="curve" smooth="yes"/>
      <point x="1001" y="867"/>
      <point x="906" y="785"/>
      <point x="906" y="634" type="curve" smooth="yes"/>
      <point x="906" y="549"/>
      <point x="915" y="426"/>
      <point x="919" y="318" type="curve"/>
      <point x="818" y="208"/>
      <point x="695" y="112"/>
      <point x="577" y="55" type="curve" smooth="yes"/>
      <point x="551" y="42"/>
      <point x="509" y="23"/>
      <point x="468" y="5" type="curve"/>
      <point x="612" y="145"/>
      <point x="769" y="437"/>
      <point x="769" y="634" type="curve" smooth="yes"/>
      <point x="769" y="794"/>
      <point x="687" y="936"/>
      <point x="478" y="936" type="curve" smooth="yes"/>
      <point x="292" y="936"/>
      <point x="74" y="800"/>
      <point x="74" y="565" type="curve" smooth="yes"/>
      <point x="74" y="467"/>
      <point x="132" y="360"/>
      <point x="258" y="357" type="curve" smooth="yes"/>
      <point x="386" y="357"/>
      <point x="511" y="469"/>
      <point x="511" y="602" type="curve" smooth="yes"/>
      <point x="511" y="686"/>
      <point x="450" y="730"/>
      <point x="382" y="730" type="curve" smooth="yes"/>
      <point x="295" y="730"/>
      <point x="212" y="658"/>
      <point x="212" y="586" type="curve" smooth="yes"/>
      <point x="212" y="569"/>
      <point x="220" y="556"/>
      <point x="230" y="541" type="curve"/>
      <point x="234" y="543" type="line"/>
      <point x="226" y="556"/>
      <point x="222" y="569"/>
      <point x="222" y="583" type="curve" smooth="yes"/>
      <point x="222" y="655"/>
      <point x="295" y="725"/>
      <point x="381" y="725" type="curve" smooth="yes"/>
      <point x="442" y="725"/>
      <point x="497" y="687"/>
      <point x="497" y="603" type="curve" smooth="yes"/>
      <point x="497" y="472"/>
      <point x="384" y="366"/>
      <point x="267" y="361" type="curve" smooth="yes"/>
      <point x="137" y="361"/>
      <point x="85" y="460"/>
      <point x="85" y="553" type="curve" smooth="yes"/>
      <point x="85" y="739"/>
      <point x="238" y="931"/>
      <point x="478" y="931" type="curve" smooth="yes"/>
      <point x="676" y="931"/>
      <point x="752" y="811"/>
      <point x="752" y="654" type="curve" smooth="yes"/>
      <point x="752" y="452"/>
      <point x="599" y="138"/>
      <point x="454" y="-1" type="curve"/>
      <point x="384" y="-32" type="line" smooth="yes"/>
      <point x="330" y="-53"/>
      <point x="337" y="-80"/>
      <point x="392" y="-55" type="curve"/>
      <point x="413" y="-42"/>
      <point x="436" y="-25"/>
      <point x="459" y="-4" type="curve"/>
      <point x="502" y="15"/>
      <point x="550" y="37"/>
      <point x="579" y="51" type="curve" smooth="yes"/>
      <point x="696" y="111"/>
      <point x="818" y="201"/>
      <point x="920" y="305" type="curve"/>
      <point x="921" y="281"/>
      <point x="921" y="257"/>
      <point x="921" y="236" type="curve" smooth="yes"/>
      <point x="921" y="143"/>
      <point x="901" y="48"/>
      <point x="866" y="-8" type="curve"/>
      <point x="849" y="-19"/>
      <point x="833" y="-27"/>
      <point x="818" y="-32" type="curve" smooth="yes"/>
      <point x="764" y="-53"/>
      <point x="771" y="-80"/>
    </contour>
    <contour>
      <point x="938" y="339" type="curve"/>
      <point x="936" y="465"/>
      <point x="923" y="566"/>
      <point x="923" y="621" type="curve" smooth="yes"/>
      <point x="923" y="792"/>
      <point x="1011" y="861"/>
      <point x="1073" y="861" type="curve" smooth="yes"/>
      <point x="1127" y="861"/>
      <point x="1149" y="805"/>
      <point x="1150" y="765" type="curve" smooth="yes"/>
      <point x="1150" y="638"/>
      <point x="1062" y="479"/>
    </contour>
    <contour>
      <point x="392" y="-51" type="line"/>
      <point x="362" y="-66"/>
      <point x="358" y="-49"/>
      <point x="384" y="-38" type="curve" smooth="yes"/>
      <point x="444" y="-10" type="line"/>
      <point x="431" y="-22"/>
      <point x="418" y="-32"/>
      <point x="406" y="-41" type="curve" smooth="yes"/>
    </contour>
    <contour>
      <point x="826" y="-51" type="curve"/>
      <point x="796" y="-66"/>
      <point x="792" y="-49"/>
      <point x="818" y="-38" type="curve"/>
      <point x="832" y="-33"/>
      <point x="846" y="-25"/>
      <point x="861" y="-16" type="curve"/>
      <point x="850" y="-31"/>
      <point x="839" y="-43"/>
    </contour>
  </outline>
</glyph>
<glyph name="Y" format="2">
  <advance width="899"/>
  <unicode hex="0059"/>
  <outline>
    <contour>
      <point x="301" y="113" type="curve" smooth="yes"/>
      <point x="301" y="50"/>
      <point x="324" y="-8"/>
      <point x="397" y="-8" type="curve" smooth="yes"/>
      <point x="510" y="-8"/>
      <point x="689" y="210"/>
      <point x="790" y="389" type="curve"/>
      <point x="703" y="176"/>
      <point x="647" y="-51"/>
      <point x="556" y="-220" type="curve" smooth="yes"/>
      <point x="473" y="-374"/>
      <point x="324" y="-518"/>
      <point x="114" y="-518" type="curve" smooth="yes"/>
      <point x="-22" y="-518"/>
      <point x="-138" y="-409"/>
      <point x="-119" y="-259" type="curve" smooth="yes"/>
      <point x="-102" y="-115"/>
      <point x="25" y="-4"/>
      <point x="143" y="-4" type="curve" smooth="yes"/>
      <point x="229" y="-4"/>
      <point x="277" y="-66"/>
      <point x="269" y="-133" type="curve" smooth="yes"/>
      <point x="260" y="-199"/>
      <point x="197" y="-283"/>
      <point x="113" y="-283" type="curve" smooth="yes"/>
      <point x="101" y="-283"/>
      <point x="58" y="-281"/>
      <point x="48" y="-240" type="curve"/>
      <point x="42" y="-242" type="line"/>
      <point x="56" y="-281"/>
      <point x="92" y="-287"/>
      <point x="116" y="-287" type="curve" smooth="yes"/>
      <point x="206" y="-287"/>
      <point x="270" y="-202"/>
      <point x="279" y="-134" type="curve" smooth="yes"/>
      <point x="288" y="-60"/>
      <point x="233" y="0"/>
      <point x="143" y="0" type="curve" smooth="yes"/>
      <point x="20" y="0"/>
      <point x="-118" y="-108"/>
      <point x="-136" y="-256" type="curve" smooth="yes"/>
      <point x="-155" y="-407"/>
      <point x="-27" y="-525"/>
      <point x="118" y="-525" type="curve" smooth="yes"/>
      <point x="338" y="-525"/>
      <point x="508" y="-367"/>
      <point x="577" y="-226" type="curve" smooth="yes"/>
      <point x="729" y="52"/>
      <point x="744" y="447"/>
      <point x="1006" y="737" type="curve" smooth="yes"/>
      <point x="1110" y="853"/>
      <point x="1216" y="935"/>
      <point x="1332" y="935" type="curve" smooth="yes"/>
      <point x="1365" y="935"/>
      <point x="1427" y="918"/>
      <point x="1435" y="880" type="curve"/>
      <point x="1439" y="883" type="line"/>
      <point x="1431" y="924"/>
      <point x="1368" y="939"/>
      <point x="1327" y="939" type="curve" smooth="yes"/>
      <point x="1201" y="939"/>
      <point x="1095" y="858"/>
      <point x="998" y="749" type="curve" smooth="yes"/>
      <point x="921" y="661"/>
      <point x="862" y="557"/>
      <point x="814" y="448" type="curve"/>
      <point x="724" y="274"/>
      <point x="522" y="-2"/>
      <point x="403" y="-2" type="curve" smooth="yes"/>
      <point x="337" y="-2"/>
      <point x="313" y="44"/>
      <point x="313" y="97" type="curve" smooth="yes"/>
      <point x="313" y="195"/>
      <point x="383" y="335"/>
      <point x="478" y="505" type="curve" smooth="yes"/>
      <point x="548" y="630"/>
      <point x="651" y="739"/>
      <point x="707" y="783" type="curve" smooth="yes"/>
      <point x="740" y="809"/>
      <point x="788" y="825"/>
      <point x="788" y="858" type="curve" smooth="yes"/>
      <point x="788" y="934"/>
      <point x="607" y="976"/>
      <point x="469" y="976" type="curve" smooth="yes"/>
      <point x="235" y="976"/>
      <point x="-32" y="835"/>
      <point x="-32" y="595" type="curve" smooth="yes"/>
      <point x="-32" y="497"/>
      <point x="26" y="390"/>
      <point x="152" y="387" type="curve" smooth="yes"/>
      <point x="280" y="387"/>
      <point x="405" y="499"/>
      <point x="405" y="632" type="curve" smooth="yes"/>
      <point x="405" y="716"/>
      <point x="344" y="760"/>
      <point x="276" y="760" type="curve" smooth="yes"/>
      <point x="189" y="760"/>
      <point x="106" y="688"/>
      <point x="106" y="616" type="curve" smooth="yes"/>
      <point x="106" y="599"/>
      <point x="114" y="586"/>
      <point x="124" y="571" type="curve"/>
      <point x="128" y="573" type="line"/>
      <point x="120" y="586"/>
      <point x="116" y="599"/>
      <point x="116" y="613" type="curve" smooth="yes"/>
      <point x="116" y="685"/>
      <point x="189" y="755"/>
      <point x="275" y="755" type="curve" smooth="yes"/>
      <point x="336" y="755"/>
      <point x="391" y="717"/>
      <point x="391" y="633" type="curve" smooth="yes"/>
      <point x="391" y="502"/>
      <point x="278" y="396"/>
      <point x="161" y="391" type="curve" smooth="yes"/>
      <point x="31" y="391"/>
      <point x="-21" y="490"/>
      <point x="-21" y="583" type="curve" smooth="yes"/>
      <point x="-21" y="774"/>
      <point x="181" y="968"/>
      <point x="470" y="971" type="curve" smooth="yes"/>
      <point x="615" y="971"/>
      <point x="777" y="926"/>
      <point x="777" y="858" type="curve" smooth="yes"/>
      <point x="777" y="828"/>
      <point x="735" y="811"/>
      <point x="706" y="788" type="curve" smooth="yes"/>
      <point x="643" y="738"/>
      <point x="539" y="630"/>
      <point x="461" y="505" type="curve" smooth="yes"/>
      <point x="388" y="388"/>
      <point x="301" y="238"/>
    </contour>
  </outline>
</glyph>
<glyph name="f" format="2">
  <advance width="215"/>
  <unicode hex="0066"/>
  <outline>
    <contour>
      <point x="18" y="483" type="line"/>
      <point x="96" y="483" type="line"/>
      <point x="51" y="396"/>
      <point x="7" y="304"/>
      <point x="-35" y="213" type="curve" smooth="yes"/>
      <point x="-112" y="46"/>
      <point x="-194" y="-128"/>
      <point x="-310" y="-244" type="curve"/>
      <point x="-318" y="-251" type="line"/>
      <point x="-487" y="-166"/>
      <point x="-659" y="-66"/>
      <point x="-835" y="-66" type="curve" smooth="yes"/>
      <point x="-955" y="-66"/>
      <point x="-1022" y="-135"/>
      <point x="-1022" y="-210" type="curve" smooth="yes"/>
      <point x="-1022" y="-300"/>
      <point x="-922" y="-399"/>
      <point x="-720" y="-405" type="curve" smooth="yes"/>
      <point x="-701" y="-405" type="line" smooth="yes"/>
      <point x="-536" y="-405"/>
      <point x="-410" y="-347"/>
      <point x="-312" y="-261" type="curve"/>
      <point x="-187" y="-322"/>
      <point x="-61" y="-375"/>
      <point x="62" y="-375" type="curve" smooth="yes"/>
      <point x="279" y="-375"/>
      <point x="368" y="-252"/>
      <point x="368" y="-160" type="curve" smooth="yes"/>
      <point x="368" y="-118"/>
      <point x="341" y="-63"/>
      <point x="282" y="-63" type="curve" smooth="yes"/>
      <point x="281" y="-63"/>
      <point x="278" y="-64"/>
      <point x="276" y="-64" type="curve"/>
      <point x="276" y="-66" type="line"/>
      <point x="280" y="-66" type="line" smooth="yes"/>
      <point x="337" y="-66"/>
      <point x="360" y="-115"/>
      <point x="360" y="-155" type="curve" smooth="yes"/>
      <point x="360" y="-245"/>
      <point x="264" y="-368"/>
      <point x="48" y="-368" type="curve" smooth="yes"/>
      <point x="-69" y="-368"/>
      <point x="-187" y="-317"/>
      <point x="-307" y="-257" type="curve"/>
      <point x="-187" y="-147"/>
      <point x="-122" y="-10"/>
      <point x="-41" y="167" type="curve" smooth="yes"/>
      <point x="8" y="277"/>
      <point x="57" y="385"/>
      <point x="106" y="483" type="curve"/>
      <point x="253" y="483" type="line"/>
      <point x="253" y="487" type="line"/>
      <point x="108" y="487" type="line"/>
      <point x="122" y="513"/>
      <point x="134" y="539"/>
      <point x="148" y="564" type="curve"/>
      <point x="160" y="563"/>
      <point x="173" y="562"/>
      <point x="186" y="562" type="curve" smooth="yes"/>
      <point x="424" y="562"/>
      <point x="615" y="778"/>
      <point x="628" y="895" type="curve" smooth="yes"/>
      <point x="635" y="949"/>
      <point x="598" y="996"/>
      <point x="550" y="996" type="curve" smooth="yes"/>
      <point x="413" y="996"/>
      <point x="273" y="811"/>
      <point x="141" y="568" type="curve"/>
      <point x="8" y="584"/>
      <point x="-86" y="672"/>
      <point x="-71" y="804" type="curve" smooth="yes"/>
      <point x="-58" y="929"/>
      <point x="39" y="1019"/>
      <point x="144" y="1019" type="curve" smooth="yes"/>
      <point x="218" y="1019"/>
      <point x="276" y="963"/>
      <point x="268" y="898" type="curve" smooth="yes"/>
      <point x="261" y="838"/>
      <point x="220" y="777"/>
      <point x="142" y="777" type="curve" smooth="yes"/>
      <point x="128" y="777"/>
      <point x="90" y="777"/>
      <point x="76" y="802" type="curve"/>
      <point x="71" y="800" type="line"/>
      <point x="88" y="773"/>
      <point x="128" y="773"/>
      <point x="142" y="773" type="curve" smooth="yes"/>
      <point x="225" y="773"/>
      <point x="271" y="835"/>
      <point x="277" y="896" type="curve" smooth="yes"/>
      <point x="286" y="964"/>
      <point x="224" y="1023"/>
      <point x="145" y="1023" type="curve" smooth="yes"/>
      <point x="33" y="1023"/>
      <point x="-71" y="932"/>
      <point x="-85" y="806" type="curve" smooth="yes"/>
      <point x="-100" y="671"/>
      <point x="0" y="581"/>
      <point x="139" y="565" type="curve"/>
      <point x="125" y="539"/>
      <point x="111" y="513"/>
      <point x="98" y="487" type="curve"/>
      <point x="18" y="487" type="line"/>
    </contour>
    <contour>
      <point x="-720" y="-400" type="line" smooth="yes"/>
      <point x="-917" y="-396"/>
      <point x="-1006" y="-302"/>
      <point x="-1006" y="-215" type="curve" smooth="yes"/>
      <point x="-1006" y="-141"/>
      <point x="-940" y="-74"/>
      <point x="-822" y="-74" type="curve" smooth="yes"/>
      <point x="-663" y="-74"/>
      <point x="-493" y="-172"/>
      <point x="-322" y="-256" type="curve"/>
      <point x="-419" y="-346"/>
      <point x="-542" y="-400"/>
      <point x="-707" y="-400" type="curve" smooth="yes"/>
    </contour>
    <contour>
      <point x="548" y="992" type="curve" smooth="yes"/>
      <point x="589" y="992"/>
      <point x="625" y="955"/>
      <point x="620" y="903" type="curve" smooth="yes"/>
      <point x="607" y="788"/>
      <point x="422" y="566"/>
      <point x="186" y="566" type="curve" smooth="yes"/>
      <point x="174" y="566"/>
      <point x="161" y="566"/>
      <point x="150" y="567" type="curve"/>
      <point x="282" y="817"/>
      <point x="415" y="992"/>
    </contour>
  </outline>
</glyph>
<glyph name="g" format="2">
  <advance width="446"/>
  <unicode hex="0067"/>
  <outline>
    <contour>
      <point x="273" y="558" type="curve" smooth="yes"/>
      <point x="318" y="558"/>
      <point x="332" y="529"/>
      <point x="326" y="495" type="curve"/>
      <point x="328" y="495" type="line"/>
      <point x="334" y="532"/>
      <point x="323" y="563"/>
      <point x="273" y="563" type="curve" smooth="yes"/>
      <point x="189" y="563"/>
      <point x="65" y="438"/>
      <point x="-1" y="280" type="curve" smooth="yes"/>
      <point x="-21" y="227"/>
      <point x="-36" y="181"/>
      <point x="-43" y="131" type="curve" smooth="yes"/>
      <point x="-54" y="54"/>
      <point x="-27" y="5"/>
      <point x="17" y="5" type="curve" smooth="yes"/>
      <point x="65" y="5"/>
      <point x="139" y="79"/>
      <point x="207" y="168" type="curve"/>
      <point x="204" y="159"/>
      <point x="200" y="152"/>
      <point x="199" y="148" type="curve"/>
      <point x="130" y="2"/>
      <point x="55" y="-143"/>
      <point x="-46" y="-244" type="curve"/>
      <point x="-54" y="-251" type="line"/>
      <point x="-223" y="-166"/>
      <point x="-395" y="-66"/>
      <point x="-571" y="-66" type="curve" smooth="yes"/>
      <point x="-691" y="-66"/>
      <point x="-758" y="-135"/>
      <point x="-758" y="-210" type="curve" smooth="yes"/>
      <point x="-758" y="-300"/>
      <point x="-658" y="-399"/>
      <point x="-456" y="-405" type="curve" smooth="yes"/>
      <point x="-437" y="-405" type="line" smooth="yes"/>
      <point x="-272" y="-405"/>
      <point x="-146" y="-347"/>
      <point x="-48" y="-261" type="curve"/>
      <point x="77" y="-322"/>
      <point x="203" y="-375"/>
      <point x="326" y="-375" type="curve" smooth="yes"/>
      <point x="543" y="-375"/>
      <point x="632" y="-252"/>
      <point x="632" y="-160" type="curve" smooth="yes"/>
      <point x="632" y="-118"/>
      <point x="605" y="-63"/>
      <point x="546" y="-63" type="curve" smooth="yes"/>
      <point x="545" y="-63"/>
      <point x="542" y="-64"/>
      <point x="540" y="-64" type="curve"/>
      <point x="540" y="-66" type="line"/>
      <point x="544" y="-66" type="line" smooth="yes"/>
      <point x="601" y="-66"/>
      <point x="624" y="-115"/>
      <point x="624" y="-155" type="curve" smooth="yes"/>
      <point x="624" y="-245"/>
      <point x="528" y="-368"/>
      <point x="312" y="-368" type="curve" smooth="yes"/>
      <point x="195" y="-368"/>
      <point x="76" y="-317"/>
      <point x="-43" y="-257" type="curve"/>
      <point x="76" y="-147"/>
      <point x="145" y="-12"/>
      <point x="216" y="169" type="curve" smooth="yes"/>
      <point x="227" y="194" type="line"/>
      <point x="279" y="266"/>
      <point x="326" y="345"/>
      <point x="352" y="401" type="curve" smooth="yes"/>
      <point x="395" y="492"/>
      <point x="425" y="565"/>
      <point x="405" y="565" type="curve" smooth="yes"/>
      <point x="389" y="565"/>
      <point x="348" y="517"/>
      <point x="280" y="357" type="curve" smooth="yes"/>
      <point x="263" y="312"/>
      <point x="234" y="236"/>
      <point x="215" y="188" type="curve"/>
      <point x="145" y="93"/>
      <point x="66" y="10"/>
      <point x="17" y="10" type="curve" smooth="yes"/>
      <point x="-22" y="10"/>
      <point x="-37" y="53"/>
      <point x="-27" y="123" type="curve" smooth="yes"/>
      <point x="-20" y="174"/>
      <point x="-8" y="220"/>
      <point x="14" y="275" type="curve"/>
      <point x="88" y="430"/>
      <point x="198" y="558"/>
    </contour>
    <contour>
      <point x="-456" y="-400" type="line" smooth="yes"/>
      <point x="-653" y="-396"/>
      <point x="-742" y="-302"/>
      <point x="-742" y="-215" type="curve" smooth="yes"/>
      <point x="-742" y="-141"/>
      <point x="-676" y="-74"/>
      <point x="-558" y="-74" type="curve" smooth="yes"/>
      <point x="-399" y="-74"/>
      <point x="-229" y="-172"/>
      <point x="-58" y="-256" type="curve"/>
      <point x="-155" y="-346"/>
      <point x="-278" y="-400"/>
      <point x="-443" y="-400" type="curve" smooth="yes"/>
    </contour>
    <contour>
      <point x="405" y="560" type="curve" smooth="yes"/>
      <point x="419" y="560"/>
      <point x="391" y="492"/>
      <point x="348" y="404" type="curve" smooth="yes"/>
      <point x="325" y="355"/>
      <point x="284" y="286"/>
      <point x="238" y="220" type="curve"/>
      <point x="297" y="357" type="line" smooth="yes"/>
      <point x="374" y="533"/>
      <point x="397" y="560"/>
    </contour>
    <contour>
      <point x="235" y="13" type="line"/>
      <point x="318" y="81"/>
      <point x="395" y="167"/>
      <point x="449" y="280" type="curve"/>
      <point x="446" y="282" type="line"/>
      <point x="392" y="169"/>
      <point x="314" y="83"/>
      <point x="231" y="15" type="curve"/>
    </contour>
  </outline>
</glyph>
<glyph name="h" format="2">
  <advance width="406"/>
  <unicode hex="0068"/>
  <outline>
    <contour>
      <point x="22" y="309" type="line"/>
      <point x="54" y="385" type="line" smooth="yes"/>
      <point x="126" y="555"/>
      <point x="210" y="719"/>
      <point x="331" y="832" type="curve"/>
      <point x="503" y="751"/>
      <point x="677" y="652"/>
      <point x="857" y="652" type="curve" smooth="yes"/>
      <point x="977" y="652"/>
      <point x="1044" y="721"/>
      <point x="1044" y="796" type="curve" smooth="yes"/>
      <point x="1044" y="886"/>
      <point x="944" y="985"/>
      <point x="742" y="991" type="curve" smooth="yes"/>
      <point x="723" y="991" type="line" smooth="yes"/>
      <point x="558" y="991"/>
      <point x="429" y="936"/>
      <point x="331" y="849" type="curve" smooth="yes"/>
      <point x="323" y="842" type="line"/>
      <point x="204" y="896"/>
      <point x="85" y="942"/>
      <point x="-33" y="942" type="curve" smooth="yes"/>
      <point x="-250" y="942"/>
      <point x="-339" y="819"/>
      <point x="-339" y="727" type="curve" smooth="yes"/>
      <point x="-339" y="685"/>
      <point x="-312" y="630"/>
      <point x="-253" y="630" type="curve" smooth="yes"/>
      <point x="-252" y="630"/>
      <point x="-249" y="631"/>
      <point x="-247" y="631" type="curve"/>
      <point x="-247" y="633" type="line"/>
      <point x="-251" y="633" type="line" smooth="yes"/>
      <point x="-308" y="633"/>
      <point x="-331" y="682"/>
      <point x="-331" y="722" type="curve" smooth="yes"/>
      <point x="-331" y="812"/>
      <point x="-235" y="935"/>
      <point x="-19" y="935" type="curve" smooth="yes"/>
      <point x="93" y="935"/>
      <point x="205" y="891"/>
      <point x="319" y="838" type="curve"/>
      <point x="204" y="729"/>
      <point x="134" y="593"/>
      <point x="59" y="419" type="curve" smooth="yes"/>
      <point x="13" y="312" type="line"/>
      <point x="0" y="282" type="line" smooth="yes"/>
      <point x="-46" y="175"/>
      <point x="-101" y="46"/>
      <point x="-119" y="6" type="curve"/>
      <point x="-98" y="6" type="line"/>
      <point x="-38" y="158" type="line"/>
      <point x="22" y="287"/>
      <point x="197" y="560"/>
      <point x="280" y="560" type="curve" smooth="yes"/>
      <point x="302" y="560"/>
      <point x="330" y="548"/>
      <point x="323" y="493" type="curve" smooth="yes"/>
      <point x="315" y="423"/>
      <point x="267" y="371"/>
      <point x="227" y="306" type="curve" smooth="yes"/>
      <point x="182" y="235"/>
      <point x="147" y="167"/>
      <point x="138" y="92" type="curve" smooth="yes"/>
      <point x="133" y="43"/>
      <point x="155" y="0"/>
      <point x="184" y="0" type="curve" smooth="yes"/>
      <point x="253" y="0"/>
      <point x="348" y="146"/>
      <point x="409" y="280" type="curve"/>
      <point x="406" y="282" type="line"/>
      <point x="347" y="154"/>
      <point x="252" y="5"/>
      <point x="185" y="5" type="curve" smooth="yes"/>
      <point x="159" y="5"/>
      <point x="140" y="39"/>
      <point x="146" y="86" type="curve" smooth="yes"/>
      <point x="155" y="164"/>
      <point x="199" y="227"/>
      <point x="245" y="299" type="curve" smooth="yes"/>
      <point x="284" y="358"/>
      <point x="323" y="434"/>
      <point x="330" y="490" type="curve" smooth="yes"/>
      <point x="337" y="545"/>
      <point x="304" y="565"/>
      <point x="280" y="565" type="curve" smooth="yes"/>
      <point x="204" y="565"/>
      <point x="59" y="354"/>
      <point x="-16" y="213" type="curve"/>
    </contour>
    <contour>
      <point x="742" y="986" type="line" smooth="yes"/>
      <point x="939" y="982"/>
      <point x="1028" y="888"/>
      <point x="1028" y="801" type="curve" smooth="yes"/>
      <point x="1028" y="727"/>
      <point x="962" y="660"/>
      <point x="844" y="660" type="curve" smooth="yes"/>
      <point x="681" y="660"/>
      <point x="509" y="756"/>
      <point x="335" y="836" type="curve"/>
      <point x="435" y="928"/>
      <point x="561" y="986"/>
      <point x="729" y="986" type="curve" smooth="yes"/>
    </contour>
  </outline>
</glyph>
<glyph name="k" format="2">
  <advance width="426"/>
  <unicode hex="006B"/>
  <outline>
    <contour>
      <point x="22" y="309" type="line"/>
      <point x="54" y="385" type="line" smooth="yes"/>
      <point x="126" y="555"/>
      <point x="210" y="719"/>
      <point x="331" y="832" type="curve"/>
      <point x="503" y="751"/>
      <point x="677" y="652"/>
      <point x="857" y="652" type="curve" smooth="yes"/>
      <point x="977" y="652"/>
      <point x="1044" y="721"/>
      <point x="1044" y="796" type="curve" smooth="yes"/>
      <point x="1044" y="886"/>
      <point x="944" y="985"/>
      <point x="742" y="991" type="curve" smooth="yes"/>
      <point x="723" y="991" type="line" smooth="yes"/>
      <point x="558" y="991"/>
      <point x="429" y="936"/>
      <point x="331" y="849" type="curve" smooth="yes"/>
      <point x="323" y="842" type="line"/>
      <point x="204" y="896"/>
      <point x="85" y="942"/>
      <point x="-33" y="942" type="curve" smooth="yes"/>
      <point x="-250" y="942"/>
      <point x="-339" y="819"/>
      <point x="-339" y="727" type="curve" smooth="yes"/>
      <point x="-339" y="685"/>
      <point x="-312" y="630"/>
      <point x="-253" y="630" type="curve" smooth="yes"/>
      <point x="-252" y="630"/>
      <point x="-249" y="631"/>
      <point x="-247" y="631" type="curve"/>
      <point x="-247" y="633" type="line"/>
      <point x="-251" y="633" type="line" smooth="yes"/>
      <point x="-308" y="633"/>
      <point x="-331" y="682"/>
      <point x="-331" y="722" type="curve" smooth="yes"/>
      <point x="-331" y="812"/>
      <point x="-235" y="935"/>
      <point x="-19" y="935" type="curve" smooth="yes"/>
      <point x="93" y="935"/>
      <point x="205" y="891"/>
      <point x="319" y="838" type="curve"/>
      <point x="204" y="729"/>
      <point x="134" y="593"/>
      <point x="59" y="419" type="curve" smooth="yes"/>
      <point x="13" y="312" type="line"/>
      <point x="0" y="282" type="line" smooth="yes"/>
      <point x="-46" y="175"/>
      <point x="-101" y="46"/>
      <point x="-119" y="6" type="curve"/>
      <point x="-98" y="6" type="line"/>
      <point x="-38" y="158" type="line" smooth="yes"/>
      <point x="26" y="300"/>
      <point x="213" y="590"/>
      <point x="312" y="590" type="curve" smooth="yes"/>
      <point x="336" y="590"/>
      <point x="367" y="578"/>
      <point x="367" y="514" type="curve" smooth="yes"/>
      <point x="367" y="438"/>
      <point x="303" y="334"/>
      <point x="221" y="334" type="curve" smooth="yes"/>
      <point x="207" y="334"/>
      <point x="186" y="339"/>
      <point x="173" y="363" type="curve"/>
      <point x="171" y="357" type="line"/>
      <point x="172" y="354"/>
      <point x="173" y="352"/>
      <point x="175" y="350" type="curve"/>
      <point x="171" y="342"/>
      <point x="168" y="334"/>
      <point x="164" y="327" type="curve" smooth="yes"/>
      <point x="126" y="265"/>
      <point x="100" y="212"/>
      <point x="100" y="133" type="curve" smooth="yes"/>
      <point x="100" y="55"/>
      <point x="133" y="0"/>
      <point x="187" y="0" type="curve" smooth="yes"/>
      <point x="272" y="0"/>
      <point x="368" y="146"/>
      <point x="429" y="280" type="curve"/>
      <point x="426" y="282" type="line"/>
      <point x="367" y="154"/>
      <point x="270" y="5"/>
      <point x="188" y="5" type="curve" smooth="yes"/>
      <point x="98" y="5"/>
      <point x="93" y="177"/>
      <point x="173" y="332" type="curve"/>
      <point x="176" y="337"/>
      <point x="180" y="341"/>
      <point x="190" y="337" type="curve"/>
      <point x="203" y="329"/>
      <point x="219" y="327"/>
      <point x="231" y="327" type="curve" smooth="yes"/>
      <point x="328" y="327"/>
      <point x="384" y="438"/>
      <point x="384" y="503" type="curve" smooth="yes"/>
      <point x="384" y="566"/>
      <point x="348" y="596"/>
      <point x="315" y="596" type="curve" smooth="yes"/>
      <point x="225" y="596"/>
      <point x="66" y="371"/>
      <point x="-14" y="218" type="curve"/>
    </contour>
    <contour>
      <point x="742" y="986" type="line" smooth="yes"/>
      <point x="939" y="982"/>
      <point x="1028" y="888"/>
      <point x="1028" y="801" type="curve" smooth="yes"/>
      <point x="1028" y="727"/>
      <point x="962" y="660"/>
      <point x="844" y="660" type="curve" smooth="yes"/>
      <point x="681" y="660"/>
      <point x="509" y="756"/>
      <point x="335" y="836" type="curve"/>
      <point x="435" y="928"/>
      <point x="561" y="986"/>
      <point x="729" y="986" type="curve" smooth="yes"/>
    </contour>
  </outline>
</glyph>
<glyph name="m" format="2">
  <advance width="768"/>
  <unicode hex="006D"/>
  <outline>
    <contour>
      <point x="435" y="560" type="curve" smooth="yes"/>
      <point x="474" y="560"/>
      <point x="492" y="503"/>
      <point x="454" y="423" type="curve" smooth="yes"/>
      <point x="437" y="387" type="line"/>
      <point x="379" y="310"/>
      <point x="327" y="224"/>
      <point x="300" y="164" type="curve" smooth="yes"/>
      <point x="256" y="73"/>
      <point x="227" y="0"/>
      <point x="247" y="0" type="curve" smooth="yes"/>
      <point x="263" y="0"/>
      <point x="301" y="48"/>
      <point x="362" y="188" type="curve" smooth="yes"/>
      <point x="454" y="401" type="line"/>
      <point x="521" y="488"/>
      <point x="594" y="560"/>
      <point x="642" y="560" type="curve" smooth="yes"/>
      <point x="664" y="560"/>
      <point x="692" y="548"/>
      <point x="685" y="493" type="curve" smooth="yes"/>
      <point x="677" y="423"/>
      <point x="629" y="371"/>
      <point x="589" y="306" type="curve" smooth="yes"/>
      <point x="544" y="235"/>
      <point x="509" y="167"/>
      <point x="500" y="92" type="curve" smooth="yes"/>
      <point x="495" y="43"/>
      <point x="517" y="0"/>
      <point x="546" y="0" type="curve" smooth="yes"/>
      <point x="615" y="0"/>
      <point x="710" y="146"/>
      <point x="771" y="280" type="curve"/>
      <point x="768" y="282" type="line"/>
      <point x="709" y="154"/>
      <point x="614" y="5"/>
      <point x="547" y="5" type="curve" smooth="yes"/>
      <point x="521" y="5"/>
      <point x="502" y="39"/>
      <point x="508" y="86" type="curve" smooth="yes"/>
      <point x="517" y="164"/>
      <point x="561" y="227"/>
      <point x="607" y="299" type="curve" smooth="yes"/>
      <point x="646" y="358"/>
      <point x="685" y="434"/>
      <point x="692" y="490" type="curve" smooth="yes"/>
      <point x="699" y="545"/>
      <point x="666" y="565"/>
      <point x="642" y="565" type="curve" smooth="yes"/>
      <point x="595" y="565"/>
      <point x="528" y="502"/>
      <point x="464" y="422" type="curve"/>
      <point x="499" y="508"/>
      <point x="476" y="565"/>
      <point x="435" y="565" type="curve" smooth="yes"/>
      <point x="388" y="565"/>
      <point x="321" y="502"/>
      <point x="257" y="422" type="curve"/>
      <point x="292" y="508"/>
      <point x="269" y="565"/>
      <point x="228" y="565" type="curve" smooth="yes"/>
      <point x="158" y="565"/>
      <point x="62" y="416"/>
      <point x="0" y="282" type="curve"/>
      <point x="3" y="280" type="line"/>
      <point x="63" y="408"/>
      <point x="160" y="560"/>
      <point x="228" y="560" type="curve" smooth="yes"/>
      <point x="267" y="560"/>
      <point x="285" y="503"/>
      <point x="247" y="423" type="curve" smooth="yes"/>
      <point x="230" y="387" type="line"/>
      <point x="172" y="310"/>
      <point x="120" y="224"/>
      <point x="93" y="164" type="curve" smooth="yes"/>
      <point x="49" y="73"/>
      <point x="20" y="0"/>
      <point x="40" y="0" type="curve" smooth="yes"/>
      <point x="56" y="0"/>
      <point x="94" y="48"/>
      <point x="155" y="188" type="curve" smooth="yes"/>
      <point x="247" y="401" type="line"/>
      <point x="314" y="488"/>
      <point x="387" y="560"/>
    </contour>
    <contour>
      <point x="40" y="5" type="curve" smooth="yes"/>
      <point x="26" y="5"/>
      <point x="53" y="73"/>
      <point x="97" y="161" type="curve" smooth="yes"/>
      <point x="121" y="213"/>
      <point x="166" y="288"/>
      <point x="216" y="359" type="curve"/>
      <point x="137" y="193" type="line" smooth="yes"/>
      <point x="59" y="29"/>
      <point x="48" y="5"/>
    </contour>
    <contour>
      <point x="247" y="5" type="curve" smooth="yes"/>
      <point x="233" y="5"/>
      <point x="260" y="73"/>
      <point x="304" y="161" type="curve" smooth="yes"/>
      <point x="328" y="213"/>
      <point x="373" y="288"/>
      <point x="423" y="359" type="curve"/>
      <point x="344" y="193" type="line" smooth="yes"/>
      <point x="266" y="29"/>
      <point x="255" y="5"/>
    </contour>
  </outline>
</glyph>
<glyph name="x" format="2">
  <advance width="515"/>
  <unicode hex="0078"/>
  <outline>
    <contour>
      <point x="474" y="558" type="curve" smooth="yes"/>
      <point x="521" y="558"/>
      <point x="533" y="523"/>
      <point x="527" y="485" type="curve" smooth="yes"/>
      <point x="522" y="449"/>
      <point x="502" y="407"/>
      <point x="475" y="382" type="curve"/>
      <point x="476" y="379" type="line"/>
      <point x="506" y="407"/>
      <point x="530" y="449"/>
      <point x="535" y="485" type="curve" smooth="yes"/>
      <point x="541" y="526"/>
      <point x="523" y="563"/>
      <point x="474" y="563" type="curve" smooth="yes"/>
      <point x="415" y="563"/>
      <point x="337" y="472"/>
      <point x="277" y="354" type="curve"/>
      <point x="287" y="398"/>
      <point x="293" y="443"/>
      <point x="293" y="490" type="curve" smooth="yes"/>
      <point x="293" y="541"/>
      <point x="265" y="565"/>
      <point x="233" y="565" type="curve" smooth="yes"/>
      <point x="163" y="565"/>
      <point x="62" y="416"/>
      <point x="0" y="282" type="curve"/>
      <point x="3" y="280" type="line"/>
      <point x="63" y="408"/>
      <point x="165" y="560"/>
      <point x="233" y="560" type="curve" smooth="yes"/>
      <point x="257" y="560"/>
      <point x="280" y="550"/>
      <point x="280" y="503" type="curve" smooth="yes"/>
      <point x="280" y="440"/>
      <point x="264" y="376"/>
      <point x="246" y="312" type="curve" smooth="yes"/>
      <point x="242" y="298"/>
      <point x="238" y="285"/>
      <point x="235" y="272" type="curve"/>
      <point x="176" y="124"/>
      <point x="79" y="5"/>
      <point x="21" y="5" type="curve" smooth="yes"/>
      <point x="-28" y="5"/>
      <point x="-42" y="39"/>
      <point x="-36" y="78" type="curve" smooth="yes"/>
      <point x="-31" y="114"/>
      <point x="-11" y="156"/>
      <point x="16" y="181" type="curve"/>
      <point x="15" y="184" type="line"/>
      <point x="-15" y="156"/>
      <point x="-39" y="114"/>
      <point x="-44" y="78" type="curve" smooth="yes"/>
      <point x="-50" y="36"/>
      <point x="-30" y="0"/>
      <point x="21" y="0" type="curve" smooth="yes"/>
      <point x="79" y="0"/>
      <point x="166" y="104"/>
      <point x="225" y="232" type="curve"/>
      <point x="214" y="189"/>
      <point x="207" y="144"/>
      <point x="207" y="100" type="curve" smooth="yes"/>
      <point x="207" y="49"/>
      <point x="232" y="0"/>
      <point x="281" y="0" type="curve" smooth="yes"/>
      <point x="350" y="0"/>
      <point x="457" y="146"/>
      <point x="518" y="280" type="curve"/>
      <point x="515" y="282" type="line"/>
      <point x="456" y="154"/>
      <point x="348" y="4"/>
      <point x="282" y="4" type="curve" smooth="yes"/>
      <point x="242" y="4"/>
      <point x="220" y="37"/>
      <point x="220" y="81" type="curve" smooth="yes"/>
      <point x="220" y="164"/>
      <point x="247" y="238"/>
      <point x="267" y="313" type="curve" smooth="yes"/>
      <point x="269" y="322" type="line"/>
      <point x="330" y="456"/>
      <point x="416" y="558"/>
    </contour>
  </outline>
</glyph>
<glyph name="cent" format="2">
  <advance width="532"/>
  <unicode hex="00A2"/>
  <outline>
    <contour>
      <point x="178" y="-123" type="line"/>
      <point x="221" y="-37" type="line"/>
      <point x="229" y="-38"/>
      <point x="237" y="-39"/>
      <point x="246" y="-39" type="curve" smooth="yes"/>
      <point x="401" y="-39"/>
      <point x="515" y="101"/>
      <point x="515" y="213" type="curve" smooth="yes"/>
      <point x="513" y="266"/>
      <point x="482" y="325"/>
      <point x="415" y="342" type="curve"/>
      <point x="454" y="418" type="line"/>
      <point x="472" y="398"/>
      <point x="501" y="384"/>
      <point x="542" y="384" type="curve" smooth="yes"/>
      <point x="640" y="384"/>
      <point x="700" y="466"/>
      <point x="700" y="529" type="curve" smooth="yes"/>
      <point x="698" y="576"/>
      <point x="666" y="640"/>
      <point x="577" y="660" type="curve"/>
      <point x="635" y="773" type="line"/>
      <point x="631" y="775" type="line"/>
      <point x="573" y="661" type="line"/>
      <point x="556" y="664"/>
      <point x="538" y="666"/>
      <point x="518" y="666" type="curve" smooth="yes"/>
      <point x="258" y="666"/>
      <point x="47" y="375"/>
      <point x="47" y="177" type="curve" smooth="yes"/>
      <point x="47" y="81"/>
      <point x="102" y="-22"/>
      <point x="217" y="-37" type="curve"/>
      <point x="174" y="-121" type="line"/>
    </contour>
    <contour>
      <point x="429" y="478" type="curve" smooth="yes"/>
      <point x="429" y="460"/>
      <point x="436" y="440"/>
      <point x="451" y="422" type="curve"/>
      <point x="411" y="343" type="line"/>
      <point x="400" y="345"/>
      <point x="388" y="347"/>
      <point x="375" y="347" type="curve" smooth="yes"/>
      <point x="276" y="347"/>
      <point x="185" y="273"/>
      <point x="185" y="174" type="curve" smooth="yes"/>
      <point x="185" y="112"/>
      <point x="227" y="77"/>
      <point x="274" y="74" type="curve"/>
      <point x="219" y="-33" type="line"/>
      <point x="116" y="-21"/>
      <point x="60" y="67"/>
      <point x="60" y="171" type="curve" smooth="yes"/>
      <point x="60" y="368"/>
      <point x="271" y="663"/>
      <point x="518" y="663" type="curve" smooth="yes"/>
      <point x="537" y="663"/>
      <point x="555" y="661"/>
      <point x="571" y="658" type="curve"/>
      <point x="530" y="577" type="line"/>
      <point x="528" y="577" type="line" smooth="yes"/>
      <point x="464" y="577"/>
      <point x="429" y="522"/>
    </contour>
    <contour>
      <point x="281" y="74" type="line" smooth="yes"/>
      <point x="338" y="74"/>
      <point x="393" y="121"/>
      <point x="393" y="170" type="curve" smooth="yes"/>
      <point x="393" y="184"/>
      <point x="387" y="194"/>
      <point x="379" y="202" type="curve"/>
      <point x="378" y="202" type="line"/>
      <point x="383" y="192"/>
      <point x="387" y="182"/>
      <point x="387" y="168" type="curve" smooth="yes"/>
      <point x="387" y="124"/>
      <point x="336" y="76"/>
      <point x="283" y="76" type="curve" smooth="yes"/>
      <point x="279" y="76" type="line"/>
      <point x="413" y="338" type="line"/>
      <point x="478" y="321"/>
      <point x="505" y="265"/>
      <point x="505" y="213" type="curve" smooth="yes"/>
      <point x="505" y="99"/>
      <point x="385" y="-35"/>
      <point x="245" y="-35" type="curve" smooth="yes"/>
      <point x="237" y="-35"/>
      <point x="230" y="-34"/>
      <point x="223" y="-34" type="curve"/>
      <point x="278" y="74" type="line"/>
    </contour>
    <contour>
      <point x="691" y="536" type="curve" smooth="yes"/>
      <point x="691" y="472"/>
      <point x="638" y="387"/>
      <point x="542" y="387" type="curve" smooth="yes"/>
      <point x="501" y="387"/>
      <point x="474" y="402"/>
      <point x="457" y="422" type="curve"/>
      <point x="533" y="573" type="line"/>
      <point x="578" y="570"/>
      <point x="601" y="537"/>
      <point x="601" y="512" type="curve" smooth="yes"/>
      <point x="601" y="499"/>
      <point x="594" y="479"/>
      <point x="576" y="470" type="curve"/>
      <point x="578" y="468" type="line"/>
      <point x="598" y="476"/>
      <point x="605" y="501"/>
      <point x="605" y="515" type="curve" smooth="yes"/>
      <point x="605" y="540"/>
      <point x="579" y="573"/>
      <point x="535" y="576" type="curve"/>
      <point x="576" y="657" type="line"/>
      <point x="648" y="640"/>
      <point x="689" y="591"/>
    </contour>
    <contour>
      <point x="194" y="175" type="curve" smooth="yes"/>
      <point x="194" y="271"/>
      <point x="276" y="343"/>
      <point x="373" y="343" type="curve" smooth="yes"/>
      <point x="386" y="343"/>
      <point x="398" y="342"/>
      <point x="409" y="339" type="curve"/>
      <point x="275" y="76" type="line"/>
      <point x="237" y="80"/>
      <point x="194" y="107"/>
    </contour>
    <contour>
      <point x="437" y="478" type="curve" smooth="yes"/>
      <point x="437" y="520"/>
      <point x="469" y="573"/>
      <point x="528" y="573" type="curve"/>
      <point x="453" y="427" type="line"/>
      <point x="442" y="442"/>
      <point x="437" y="461"/>
    </contour>
  </outline>
</glyph>
<glyph name="yen" format="2">
  <advance width="860"/>
  <unicode hex="00A5"/>
  <outline>
    <contour>
      <point x="523" y="433" type="curve" smooth="yes"/>
      <point x="456" y="462"/>
      <point x="377" y="493"/>
      <point x="302" y="493" type="curve" smooth="yes"/>
      <point x="217" y="493"/>
      <point x="142" y="442"/>
      <point x="142" y="368" type="curve" smooth="yes"/>
      <point x="142" y="355"/>
      <point x="146" y="343"/>
      <point x="154" y="331" type="curve"/>
      <point x="158" y="333" type="line"/>
      <point x="150" y="341"/>
      <point x="147" y="352"/>
      <point x="147" y="364" type="curve" smooth="yes"/>
      <point x="147" y="454"/>
      <point x="242" y="484"/>
      <point x="313" y="484" type="curve" smooth="yes"/>
      <point x="382" y="484"/>
      <point x="456" y="456"/>
      <point x="519" y="429" type="curve" smooth="yes"/>
      <point x="552" y="414" type="line"/>
      <point x="547" y="415"/>
      <point x="543" y="415"/>
      <point x="538" y="415" type="curve" smooth="yes"/>
      <point x="473" y="415"/>
      <point x="415" y="372"/>
      <point x="374" y="305" type="curve"/>
      <point x="372" y="338"/>
      <point x="345" y="359"/>
      <point x="314" y="359" type="curve" smooth="yes"/>
      <point x="275" y="359"/>
      <point x="220" y="320"/>
      <point x="220" y="247" type="curve" smooth="yes"/>
      <point x="220" y="200"/>
      <point x="250" y="154"/>
      <point x="272" y="111" type="curve"/>
      <point x="296" y="73"/>
      <point x="312" y="36"/>
      <point x="312" y="3" type="curve" smooth="yes"/>
      <point x="312" y="-30"/>
      <point x="300" y="-101"/>
      <point x="222" y="-101" type="curve" smooth="yes"/>
      <point x="180" y="-101"/>
      <point x="153" y="-64"/>
      <point x="153" y="-29" type="curve" smooth="yes"/>
      <point x="153" y="-11"/>
      <point x="167" y="21"/>
      <point x="188" y="27" type="curve"/>
      <point x="187" y="31" type="line"/>
      <point x="164" y="25"/>
      <point x="149" y="-9"/>
      <point x="149" y="-29" type="curve" smooth="yes"/>
      <point x="149" y="-66"/>
      <point x="178" y="-106"/>
      <point x="226" y="-106" type="curve" smooth="yes"/>
      <point x="308" y="-106"/>
      <point x="320" y="-33"/>
      <point x="320" y="2" type="curve" smooth="yes"/>
      <point x="320" y="12"/>
      <point x="318" y="22"/>
      <point x="315" y="32" type="curve"/>
      <point x="315" y="44" type="line" smooth="yes"/>
      <point x="315" y="124"/>
      <point x="333" y="204"/>
      <point x="365" y="269" type="curve"/>
      <point x="390" y="311"/>
      <point x="432" y="341"/>
      <point x="482" y="341" type="curve" smooth="yes"/>
      <point x="551" y="341"/>
      <point x="582" y="295"/>
      <point x="582" y="243" type="curve" smooth="yes"/>
      <point x="582" y="163"/>
      <point x="497" y="68"/>
      <point x="396" y="68" type="curve" smooth="yes"/>
      <point x="371" y="68"/>
      <point x="347" y="76"/>
      <point x="331" y="93" type="curve"/>
      <point x="329" y="91" type="line"/>
      <point x="346" y="72"/>
      <point x="370" y="64"/>
      <point x="396" y="64" type="curve" smooth="yes"/>
      <point x="504" y="64"/>
      <point x="596" y="162"/>
      <point x="596" y="245" type="curve" smooth="yes"/>
      <point x="596" y="299"/>
      <point x="560" y="347"/>
      <point x="486" y="347" type="curve" smooth="yes"/>
      <point x="439" y="347"/>
      <point x="400" y="320"/>
      <point x="372" y="283" type="curve"/>
      <point x="413" y="359"/>
      <point x="472" y="411"/>
      <point x="538" y="411" type="curve" smooth="yes"/>
      <point x="549" y="411"/>
      <point x="560" y="410"/>
      <point x="572" y="407" type="curve"/>
      <point x="622" y="387"/>
      <point x="673" y="372"/>
      <point x="729" y="372" type="curve" smooth="yes"/>
      <point x="814" y="372"/>
      <point x="914" y="424"/>
      <point x="914" y="498" type="curve" smooth="yes"/>
      <point x="914" y="511"/>
      <point x="910" y="523"/>
      <point x="902" y="535" type="curve"/>
      <point x="898" y="533" type="line"/>
      <point x="906" y="525"/>
      <point x="909" y="514"/>
      <point x="909" y="502" type="curve" smooth="yes"/>
      <point x="909" y="412"/>
      <point x="789" y="381"/>
      <point x="718" y="381" type="curve" smooth="yes"/>
      <point x="649" y="381"/>
      <point x="586" y="406"/>
    </contour>
    <contour>
      <point x="309" y="64" type="curve" smooth="yes"/>
      <point x="309" y="49" type="line"/>
      <point x="300" y="71"/>
      <point x="287" y="93"/>
      <point x="275" y="116" type="curve" smooth="yes"/>
      <point x="252" y="159"/>
      <point x="228" y="204"/>
      <point x="228" y="249" type="curve" smooth="yes"/>
      <point x="228" y="319"/>
      <point x="279" y="355"/>
      <point x="314" y="355" type="curve" smooth="yes"/>
      <point x="344" y="355"/>
      <point x="370" y="335"/>
      <point x="370" y="303" type="curve" smooth="yes"/>
      <point x="370" y="299" type="line"/>
      <point x="332" y="235"/>
      <point x="309" y="152"/>
    </contour>
  </outline>
</glyph>
<glyph name="dieresis" format="2">
  <advance width="320"/>
  <unicode hex="00A8"/>
  <outline>
    <contour>
      <point x="197" y="735" type="curve"/>
      <point x="195" y="726"/>
      <point x="199" y="717"/>
      <point x="210" y="717" type="curve" smooth="yes"/>
      <point x="220" y="717"/>
      <point x="231" y="724"/>
      <point x="234" y="735" type="curve"/>
      <point x="238" y="746"/>
      <point x="232" y="754"/>
      <point x="222" y="754" type="curve" smooth="yes"/>
      <point x="211" y="754"/>
      <point x="201" y="746"/>
    </contour>
    <contour>
      <point x="302" y="735" type="curve"/>
      <point x="300" y="726"/>
      <point x="304" y="717"/>
      <point x="315" y="717" type="curve" smooth="yes"/>
      <point x="325" y="717"/>
      <point x="336" y="724"/>
      <point x="339" y="735" type="curve"/>
      <point x="343" y="746"/>
      <point x="337" y="754"/>
      <point x="327" y="754" type="curve" smooth="yes"/>
      <point x="316" y="754"/>
      <point x="306" y="746"/>
    </contour>
  </outline>
</glyph>
<glyph name="onesuperior" format="2">
  <advance width="302"/>
  <unicode hex="00B9"/>
  <outline>
    <contour>
      <point x="68" y="417" type="line"/>
      <point x="64" y="431"/>
      <point x="62" y="444"/>
      <point x="62" y="456" type="curve" smooth="yes"/>
      <point x="64" y="527"/>
      <point x="140" y="581"/>
      <point x="204" y="621" type="curve"/>
      <point x="150" y="545"/>
      <point x="83" y="417"/>
      <point x="38" y="300" type="curve"/>
      <point x="51" y="300" type="line"/>
      <point x="98" y="422"/>
      <point x="161" y="552"/>
      <point x="211" y="625" type="curve"/>
      <point x="231" y="637" type="line" smooth="yes"/>
      <point x="248" y="648"/>
      <point x="269" y="662"/>
      <point x="278" y="670" type="curve" smooth="yes"/>
      <point x="290" y="680"/>
      <point x="286" y="690"/>
      <point x="276" y="690" type="curve" smooth="yes"/>
      <point x="261" y="690"/>
      <point x="237" y="665"/>
      <point x="208" y="626" type="curve"/>
      <point x="146" y="587"/>
      <point x="62" y="537"/>
      <point x="60" y="462" type="curve" smooth="yes"/>
      <point x="59" y="448"/>
      <point x="62" y="432"/>
      <point x="67" y="418" type="curve"/>
    </contour>
    <contour>
      <point x="270" y="682" type="curve" smooth="yes"/>
      <point x="278" y="682"/>
      <point x="280" y="675"/>
      <point x="271" y="668" type="curve"/>
      <point x="262" y="660"/>
      <point x="247" y="650"/>
      <point x="230" y="640" type="curve" smooth="yes"/>
      <point x="214" y="630" type="line"/>
      <point x="237" y="662"/>
      <point x="257" y="682"/>
    </contour>
  </outline>
</glyph>
<glyph name="Otilde" format="2">
  <advance width="879"/>
  <unicode hex="00D5"/>
  <outline>
    <contour>
      <point x="600" y="592" type="line"/>
      <point x="612" y="572"/>
      <point x="616" y="551"/>
      <point x="616" y="529" type="curve" smooth="yes"/>
      <point x="616" y="416"/>
      <point x="509" y="306"/>
      <point x="393" y="306" type="curve" smooth="yes"/>
      <point x="308" y="306"/>
      <point x="237" y="363"/>
      <point x="237" y="487" type="curve" smooth="yes"/>
      <point x="237" y="700"/>
      <point x="434" y="877"/>
      <point x="647" y="877" type="curve" smooth="yes"/>
      <point x="809" y="877"/>
      <point x="877" y="753"/>
      <point x="877" y="615" type="curve" smooth="yes"/>
      <point x="877" y="325"/>
      <point x="595" y="-87"/>
      <point x="262" y="-87" type="curve" smooth="yes"/>
      <point x="78" y="-87"/>
      <point x="-11" y="58"/>
      <point x="-11" y="238" type="curve" smooth="yes"/>
      <point x="-11" y="576"/>
      <point x="329" y="942"/>
      <point x="628" y="942" type="curve"/>
      <point x="626" y="946" type="line"/>
      <point x="329" y="946"/>
      <point x="-24" y="604"/>
      <point x="-24" y="253" type="curve" smooth="yes"/>
      <point x="-24" y="67"/>
      <point x="70" y="-96"/>
      <point x="271" y="-96" type="curve" smooth="yes"/>
      <point x="604" y="-96"/>
      <point x="887" y="309"/>
      <point x="887" y="595" type="curve" smooth="yes"/>
      <point x="887" y="747"/>
      <point x="812" y="883"/>
      <point x="647" y="883" type="curve" smooth="yes"/>
      <point x="431" y="883"/>
      <point x="223" y="708"/>
      <point x="223" y="496" type="curve" smooth="yes"/>
      <point x="223" y="369"/>
      <point x="296" y="301"/>
      <point x="387" y="301" type="curve" smooth="yes"/>
      <point x="513" y="301"/>
      <point x="629" y="413"/>
      <point x="629" y="528" type="curve" smooth="yes"/>
      <point x="629" y="553"/>
      <point x="619" y="575"/>
      <point x="605" y="596" type="curve"/>
    </contour>
    <contour>
      <point x="637" y="1119" type="line"/>
      <point x="657" y="1151"/>
      <point x="684" y="1163"/>
      <point x="710" y="1163" type="curve" smooth="yes"/>
      <point x="758" y="1163"/>
      <point x="798" y="1125"/>
      <point x="843" y="1125" type="curve" smooth="yes"/>
      <point x="869" y="1125"/>
      <point x="890" y="1142"/>
      <point x="899" y="1165" type="curve"/>
      <point x="897" y="1165" type="line"/>
      <point x="888" y="1145"/>
      <point x="868" y="1138"/>
      <point x="849" y="1138" type="curve" smooth="yes"/>
      <point x="824" y="1138"/>
      <point x="755" y="1175"/>
      <point x="724" y="1175" type="curve" smooth="yes"/>
      <point x="691" y="1175"/>
      <point x="655" y="1158"/>
      <point x="634" y="1120" type="curve"/>
    </contour>
  </outline>
</glyph>
<glyph name="Odieresis" format="2">
  <advance width="879"/>
  <unicode hex="00D6"/>
  <outline>
    <contour>
      <point x="600" y="592" type="line"/>
      <point x="612" y="572"/>
      <point x="616" y="551"/>
      <point x="616" y="529" type="curve" smooth="yes"/>
      <point x="616" y="416"/>
      <point x="509" y="306"/>
      <point x="393" y="306" type="curve" smooth="yes"/>
      <point x="308" y="306"/>
      <point x="237" y="363"/>
      <point x="237" y="487" type="curve" smooth="yes"/>
      <point x="237" y="700"/>
      <point x="434" y="877"/>
      <point x="647" y="877" type="curve" smooth="yes"/>
      <point x="809" y="877"/>
      <point x="877" y="753"/>
      <point x="877" y="615" type="curve" smooth="yes"/>
      <point x="877" y="325"/>
      <point x="595" y="-87"/>
      <point x="262" y="-87" type="curve" smooth="yes"/>
      <point x="78" y="-87"/>
      <point x="-11" y="58"/>
      <point x="-11" y="238" type="curve" smooth="yes"/>
      <point x="-11" y="576"/>
      <point x="329" y="942"/>
      <point x="628" y="942" type="curve"/>
      <point x="626" y="946" type="line"/>
      <point x="329" y="946"/>
      <point x="-24" y="604"/>
      <point x="-24" y="253" type="curve" smooth="yes"/>
      <point x="-24" y="67"/>
      <point x="70" y="-96"/>
      <point x="271" y="-96" type="curve" smooth="yes"/>
      <point x="604" y="-96"/>
      <point x="887" y="309"/>
      <point x="887" y="595" type="curve" smooth="yes"/>
      <point x="887" y="747"/>
      <point x="812" y="883"/>
      <point x="647" y="883" type="curve" smooth="yes"/>
      <point x="431" y="883"/>
      <point x="223" y="708"/>
      <point x="223" y="496" type="curve" smooth="yes"/>
      <point x="223" y="369"/>
      <point x="296" y="301"/>
      <point x="387" y="301" type="curve" smooth="yes"/>
      <point x="513" y="301"/>
      <point x="629" y="413"/>
      <point x="629" y="528" type="curve" smooth="yes"/>
      <point x="629" y="553"/>
      <point x="619" y="575"/>
      <point x="605" y="596" type="curve"/>
    </contour>
    <contour>
      <point x="703" y="1167" type="curve"/>
      <point x="701" y="1158"/>
      <point x="705" y="1149"/>
      <point x="716" y="1149" type="curve" smooth="yes"/>
      <point x="726" y="1149"/>
      <point x="737" y="1156"/>
      <point x="740" y="1167" type="curve"/>
      <point x="744" y="1178"/>
      <point x="738" y="1186"/>
      <point x="728" y="1186" type="curve" smooth="yes"/>
      <point x="717" y="1186"/>
      <point x="707" y="1178"/>
    </contour>
    <contour>
      <point x="808" y="1167" type="curve"/>
      <point x="806" y="1158"/>
      <point x="810" y="1149"/>
      <point x="821" y="1149" type="curve" smooth="yes"/>
      <point x="831" y="1149"/>
      <point x="842" y="1156"/>
      <point x="845" y="1167" type="curve"/>
      <point x="849" y="1178"/>
      <point x="843" y="1186"/>
      <point x="833" y="1186" type="curve" smooth="yes"/>
      <point x="822" y="1186"/>
      <point x="812" y="1178"/>
    </contour>
  </outline>
</glyph>
<glyph name="agrave" format="2">
  <advance width="446"/>
  <unicode hex="00E0"/>
  <outline>
    <contour>
      <point x="261" y="558" type="curve" smooth="yes"/>
      <point x="310" y="558"/>
      <point x="324" y="524"/>
      <point x="318" y="485" type="curve" smooth="yes"/>
      <point x="313" y="449"/>
      <point x="293" y="408"/>
      <point x="266" y="382" type="curve"/>
      <point x="267" y="379" type="line"/>
      <point x="297" y="407"/>
      <point x="321" y="449"/>
      <point x="326" y="485" type="curve" smooth="yes"/>
      <point x="332" y="527"/>
      <point x="312" y="563"/>
      <point x="261" y="563" type="curve" smooth="yes"/>
      <point x="183" y="563"/>
      <point x="65" y="438"/>
      <point x="-1" y="280" type="curve" smooth="yes"/>
      <point x="-21" y="227"/>
      <point x="-36" y="181"/>
      <point x="-43" y="131" type="curve" smooth="yes"/>
      <point x="-54" y="46"/>
      <point x="-28" y="-12"/>
      <point x="18" y="-12" type="curve" smooth="yes"/>
      <point x="64" y="-12"/>
      <point x="142" y="50"/>
      <point x="193" y="136" type="curve"/>
      <point x="167" y="59"/>
      <point x="186" y="0"/>
      <point x="224" y="0" type="curve" smooth="yes"/>
      <point x="293" y="0"/>
      <point x="388" y="146"/>
      <point x="449" y="280" type="curve"/>
      <point x="446" y="282" type="line"/>
      <point x="387" y="154"/>
      <point x="291" y="4"/>
      <point x="224" y="4" type="curve" smooth="yes"/>
      <point x="185" y="4"/>
      <point x="175" y="72"/>
      <point x="212" y="152" type="curve" smooth="yes"/>
      <point x="403" y="550" type="line"/>
      <point x="382" y="550" type="line"/>
      <point x="215" y="187" type="line" smooth="yes"/>
      <point x="161" y="69"/>
      <point x="71" y="-6"/>
      <point x="20" y="-6" type="curve" smooth="yes"/>
      <point x="-23" y="-6"/>
      <point x="-37" y="45"/>
      <point x="-27" y="123" type="curve" smooth="yes"/>
      <point x="-20" y="174"/>
      <point x="-8" y="220"/>
      <point x="14" y="275" type="curve" smooth="yes"/>
      <point x="82" y="430"/>
      <point x="192" y="558"/>
    </contour>
    <contour>
      <point x="422" y="696" type="line"/>
      <point x="303" y="781" type="line" smooth="yes"/>
      <point x="299" y="784"/>
      <point x="291" y="788"/>
      <point x="283" y="788" type="curve" smooth="yes"/>
      <point x="275" y="788"/>
      <point x="271" y="784"/>
      <point x="271" y="777" type="curve" smooth="yes"/>
      <point x="271" y="768"/>
      <point x="278" y="763"/>
      <point x="287" y="759" type="curve" smooth="yes"/>
      <point x="420" y="694" type="line"/>
    </contour>
  </outline>
</glyph>
<glyph name="eth" format="2">
  <advance width="338"/>
  <unicode hex="00F0"/>
  <outline>
    <contour>
      <point x="264" y="562" type="line"/>
      <point x="261" y="563"/>
      <point x="258" y="563"/>
      <point x="254" y="563" type="curve" smooth="yes"/>
      <point x="175" y="563"/>
      <point x="66" y="439"/>
      <point x="0" y="282" type="curve" smooth="yes"/>
      <point x="-23" y="224"/>
      <point x="-34" y="173"/>
      <point x="-37" y="116" type="curve" smooth="yes"/>
      <point x="-41" y="41"/>
      <point x="-16" y="-10"/>
      <point x="31" y="-12" type="curve" smooth="yes"/>
      <point x="110" y="-12"/>
      <point x="217" y="112"/>
      <point x="285" y="269" type="curve" smooth="yes"/>
      <point x="316" y="340"/>
      <point x="331" y="420"/>
      <point x="331" y="492" type="curve" smooth="yes"/>
      <point x="331" y="562"/>
      <point x="317" y="625"/>
      <point x="291" y="668" type="curve"/>
      <point x="363" y="707" type="line"/>
      <point x="361" y="711" type="line"/>
      <point x="288" y="672" type="line"/>
      <point x="271" y="699"/>
      <point x="249" y="717"/>
      <point x="222" y="724" type="curve"/>
      <point x="219" y="720" type="line"/>
      <point x="246" y="711"/>
      <point x="267" y="693"/>
      <point x="282" y="668" type="curve"/>
      <point x="201" y="625" type="line"/>
      <point x="203" y="621" type="line"/>
      <point x="284" y="665" type="line"/>
      <point x="307" y="626"/>
      <point x="317" y="572"/>
      <point x="317" y="513" type="curve" smooth="yes"/>
      <point x="317" y="435"/>
      <point x="299" y="347"/>
      <point x="269" y="276" type="curve" smooth="yes"/>
      <point x="204" y="123"/>
      <point x="101" y="-7"/>
      <point x="31" y="-7" type="curve"/>
      <point x="-8" y="-4"/>
      <point x="-27" y="41"/>
      <point x="-23" y="107" type="curve" smooth="yes"/>
      <point x="-20" y="163"/>
      <point x="-8" y="217"/>
      <point x="16" y="275" type="curve" smooth="yes"/>
      <point x="77" y="430"/>
      <point x="186" y="558"/>
      <point x="256" y="558" type="curve" smooth="yes"/>
      <point x="259" y="558"/>
      <point x="263" y="558"/>
      <point x="266" y="557" type="curve"/>
    </contour>
  </outline>
</glyph>
<glyph name="ntilde" format="2">
  <advance width="561"/>
  <unicode hex="00F1"/>
  <outline>
    <contour>
      <point x="339" y="0" type="curve" smooth="yes"/>
      <point x="408" y="0"/>
      <point x="503" y="146"/>
      <point x="564" y="280" type="curve"/>
      <point x="561" y="282" type="line"/>
      <point x="502" y="154"/>
      <point x="407" y="5"/>
      <point x="340" y="5" type="curve" smooth="yes"/>
      <point x="314" y="5"/>
      <point x="295" y="39"/>
      <point x="301" y="86" type="curve" smooth="yes"/>
      <point x="310" y="164"/>
      <point x="354" y="227"/>
      <point x="400" y="299" type="curve" smooth="yes"/>
      <point x="439" y="358"/>
      <point x="478" y="434"/>
      <point x="485" y="490" type="curve" smooth="yes"/>
      <point x="492" y="545"/>
      <point x="459" y="565"/>
      <point x="435" y="565" type="curve" smooth="yes"/>
      <point x="388" y="565"/>
      <point x="321" y="502"/>
      <point x="257" y="422" type="curve"/>
      <point x="292" y="508"/>
      <point x="269" y="565"/>
      <point x="228" y="565" type="curve" smooth="yes"/>
      <point x="158" y="565"/>
      <point x="62" y="416"/>
      <point x="0" y="282" type="curve"/>
      <point x="3" y="280" type="line"/>
      <point x="63" y="408"/>
      <point x="160" y="560"/>
      <point x="228" y="560" type="curve" smooth="yes"/>
      <point x="267" y="560"/>
      <point x="285" y="503"/>
      <point x="247" y="423" type="curve" smooth="yes"/>
      <point x="230" y="387" type="line"/>
      <point x="172" y="310"/>
      <point x="120" y="224"/>
      <point x="93" y="164" type="curve" smooth="yes"/>
      <point x="49" y="73"/>
      <point x="20" y="0"/>
      <point x="40" y="0" type="curve" smooth="yes"/>
      <point x="56" y="0"/>
      <point x="94" y="48"/>
      <point x="155" y="188" type="curve" smooth="yes"/>
      <point x="247" y="401" type="line"/>
      <point x="314" y="488"/>
      <point x="387" y="560"/>
      <point x="435" y="560" type="curve" smooth="yes"/>
      <point x="457" y="560"/>
      <point x="485" y="548"/>
      <point x="478" y="493" type="curve" smooth="yes"/>
      <point x="470" y="423"/>
      <point x="422" y="371"/>
      <point x="382" y="306" type="curve" smooth="yes"/>
      <point x="337" y="235"/>
      <point x="302" y="167"/>
      <point x="293" y="92" type="curve" smooth="yes"/>
      <point x="288" y="43"/>
      <point x="310" y="0"/>
    </contour>
    <contour>
      <point x="40" y="5" type="curve" smooth="yes"/>
      <point x="26" y="5"/>
      <point x="53" y="73"/>
      <point x="97" y="161" type="curve" smooth="yes"/>
      <point x="121" y="213"/>
      <point x="166" y="288"/>
      <point x="216" y="359" type="curve"/>
      <point x="137" y="193" type="line" smooth="yes"/>
      <point x="59" y="29"/>
      <point x="48" y="5"/>
    </contour>
    <contour>
      <point x="322" y="687" type="line"/>
      <point x="342" y="719"/>
      <point x="369" y="731"/>
      <point x="395" y="731" type="curve" smooth="yes"/>
      <point x="443" y="731"/>
      <point x="483" y="693"/>
      <point x="528" y="693" type="curve" smooth="yes"/>
      <point x="554" y="693"/>
      <point x="575" y="710"/>
      <point x="584" y="733" type="curve"/>
      <point x="582" y="733" type="line"/>
      <point x="573" y="713"/>
      <point x="553" y="706"/>
      <point x="534" y="706" type="curve" smooth="yes"/>
      <point x="509" y="706"/>
      <point x="440" y="743"/>
      <point x="409" y="743" type="curve" smooth="yes"/>
      <point x="376" y="743"/>
      <point x="340" y="726"/>
      <point x="319" y="688" type="curve"/>
    </contour>
  </outline>
</glyph>
<glyph name="uacute" format="2">
  <advance width="374"/>
  <unicode hex="00FA"/>
  <outline>
    <contour>
      <point x="310" y="550" type="line"/>
      <point x="187" y="282" type="line"/>
      <point x="177" y="261" type="line" smooth="yes"/>
      <point x="117" y="138"/>
      <point x="28" y="4"/>
      <point x="-34" y="4" type="curve" smooth="yes"/>
      <point x="-73" y="4"/>
      <point x="-83" y="72"/>
      <point x="-46" y="152" type="curve" smooth="yes"/>
      <point x="144" y="550" type="line"/>
      <point x="123" y="550" type="line"/>
      <point x="0" y="282" type="line"/>
      <point x="-55" y="161" type="line" smooth="yes"/>
      <point x="-95" y="72"/>
      <point x="-77" y="0"/>
      <point x="-35" y="0" type="curve" smooth="yes"/>
      <point x="18" y="0"/>
      <point x="86" y="85"/>
      <point x="142" y="186" type="curve"/>
      <point x="131" y="161" type="line" smooth="yes"/>
      <point x="91" y="72"/>
      <point x="110" y="0"/>
      <point x="152" y="0" type="curve" smooth="yes"/>
      <point x="221" y="0"/>
      <point x="316" y="146"/>
      <point x="377" y="280" type="curve"/>
      <point x="374" y="282" type="line"/>
      <point x="315" y="154"/>
      <point x="219" y="4"/>
      <point x="152" y="4" type="curve" smooth="yes"/>
      <point x="113" y="4"/>
      <point x="103" y="72"/>
      <point x="140" y="152" type="curve" smooth="yes"/>
      <point x="331" y="550" type="line"/>
    </contour>
    <contour>
      <point x="206" y="694" type="line"/>
      <point x="339" y="759" type="line" smooth="yes"/>
      <point x="348" y="763"/>
      <point x="355" y="768"/>
      <point x="355" y="777" type="curve" smooth="yes"/>
      <point x="355" y="784"/>
      <point x="351" y="788"/>
      <point x="343" y="788" type="curve" smooth="yes"/>
      <point x="335" y="788"/>
      <point x="327" y="784"/>
      <point x="323" y="781" type="curve" smooth="yes"/>
      <point x="204" y="696" type="line"/>
    </contour>
  </outline>
</glyph>
<glyph name="yacute" format="2">
  <advance width="570"/>
  <unicode hex="00FD"/>
  <outline>
    <contour>
      <point x="228" y="565" type="curve" smooth="yes"/>
      <point x="158" y="565"/>
      <point x="62" y="416"/>
      <point x="0" y="282" type="curve"/>
      <point x="3" y="280" type="line"/>
      <point x="63" y="408"/>
      <point x="160" y="560"/>
      <point x="228" y="560" type="curve" smooth="yes"/>
      <point x="250" y="560"/>
      <point x="278" y="548"/>
      <point x="271" y="493" type="curve" smooth="yes"/>
      <point x="263" y="423"/>
      <point x="215" y="371"/>
      <point x="175" y="306" type="curve" smooth="yes"/>
      <point x="130" y="235"/>
      <point x="95" y="167"/>
      <point x="86" y="92" type="curve" smooth="yes"/>
      <point x="81" y="43"/>
      <point x="105" y="5"/>
      <point x="141" y="5" type="curve" smooth="yes"/>
      <point x="189" y="5"/>
      <point x="263" y="79"/>
      <point x="331" y="168" type="curve"/>
      <point x="328" y="159"/>
      <point x="324" y="152"/>
      <point x="323" y="148" type="curve"/>
      <point x="254" y="2"/>
      <point x="179" y="-143"/>
      <point x="78" y="-244" type="curve"/>
      <point x="70" y="-251" type="line"/>
      <point x="-99" y="-166"/>
      <point x="-271" y="-66"/>
      <point x="-447" y="-66" type="curve" smooth="yes"/>
      <point x="-567" y="-66"/>
      <point x="-634" y="-135"/>
      <point x="-634" y="-210" type="curve" smooth="yes"/>
      <point x="-634" y="-300"/>
      <point x="-534" y="-399"/>
      <point x="-332" y="-405" type="curve" smooth="yes"/>
      <point x="-313" y="-405" type="line" smooth="yes"/>
      <point x="-148" y="-405"/>
      <point x="-22" y="-347"/>
      <point x="76" y="-261" type="curve"/>
      <point x="201" y="-322"/>
      <point x="327" y="-375"/>
      <point x="450" y="-375" type="curve" smooth="yes"/>
      <point x="667" y="-375"/>
      <point x="756" y="-252"/>
      <point x="756" y="-160" type="curve" smooth="yes"/>
      <point x="756" y="-118"/>
      <point x="729" y="-63"/>
      <point x="670" y="-63" type="curve" smooth="yes"/>
      <point x="669" y="-63"/>
      <point x="666" y="-64"/>
      <point x="664" y="-64" type="curve"/>
      <point x="664" y="-66" type="line"/>
      <point x="668" y="-66" type="line" smooth="yes"/>
      <point x="725" y="-66"/>
      <point x="748" y="-115"/>
      <point x="748" y="-155" type="curve" smooth="yes"/>
      <point x="748" y="-245"/>
      <point x="652" y="-368"/>
      <point x="436" y="-368" type="curve" smooth="yes"/>
      <point x="319" y="-368"/>
      <point x="200" y="-317"/>
      <point x="80" y="-257" type="curve"/>
      <point x="200" y="-147"/>
      <point x="269" y="-12"/>
      <point x="340" y="169" type="curve" smooth="yes"/>
      <point x="351" y="194" type="line"/>
      <point x="403" y="266"/>
      <point x="450" y="345"/>
      <point x="476" y="401" type="curve" smooth="yes"/>
      <point x="519" y="492"/>
      <point x="549" y="565"/>
      <point x="529" y="565" type="curve" smooth="yes"/>
      <point x="513" y="565"/>
      <point x="472" y="517"/>
      <point x="404" y="357" type="curve" smooth="yes"/>
      <point x="387" y="312"/>
      <point x="358" y="236"/>
      <point x="339" y="188" type="curve"/>
      <point x="269" y="93"/>
      <point x="190" y="10"/>
      <point x="141" y="10" type="curve" smooth="yes"/>
      <point x="112" y="10"/>
      <point x="88" y="39"/>
      <point x="94" y="86" type="curve" smooth="yes"/>
      <point x="103" y="164"/>
      <point x="147" y="227"/>
      <point x="193" y="299" type="curve" smooth="yes"/>
      <point x="232" y="358"/>
      <point x="271" y="434"/>
      <point x="278" y="490" type="curve" smooth="yes"/>
      <point x="285" y="545"/>
      <point x="252" y="565"/>
    </contour>
    <contour>
      <point x="-332" y="-400" type="line" smooth="yes"/>
      <point x="-529" y="-396"/>
      <point x="-618" y="-302"/>
      <point x="-618" y="-215" type="curve" smooth="yes"/>
      <point x="-618" y="-141"/>
      <point x="-552" y="-74"/>
      <point x="-434" y="-74" type="curve" smooth="yes"/>
      <point x="-275" y="-74"/>
      <point x="-105" y="-172"/>
      <point x="65" y="-256" type="curve"/>
      <point x="-31" y="-346"/>
      <point x="-154" y="-400"/>
      <point x="-319" y="-400" type="curve" smooth="yes"/>
    </contour>
    <contour>
      <point x="529" y="560" type="curve" smooth="yes"/>
      <point x="543" y="560"/>
      <point x="515" y="492"/>
      <point x="472" y="404" type="curve" smooth="yes"/>
      <point x="449" y="355"/>
      <point x="408" y="286"/>
      <point x="362" y="220" type="curve"/>
      <point x="421" y="357" type="line" smooth="yes"/>
      <point x="498" y="533"/>
      <point x="521" y="560"/>
    </contour>
    <contour>
      <point x="394" y="694" type="line"/>
      <point x="527" y="759" type="line" smooth="yes"/>
      <point x="536" y="763"/>
      <point x="543" y="768"/>
      <point x="543" y="777" type="curve" smooth="yes"/>
      <point x="543" y="784"/>
      <point x="539" y="788"/>
      <point x="531" y="788" type="curve" smooth="yes"/>
      <point x="523" y="788"/>
      <point x="515" y="784"/>
      <point x="511" y="781" type="curve" smooth="yes"/>
      <point x="392" y="696" type="line"/>
    </contour>
  </outline>
</glyph>
<glyph name="Gbreve" format="2">
  <advance width="784"/>
  <unicode hex="011E"/>
  <outline>
    <contour>
      <point x="543" y="131" type="curve"/>
      <point x="543" y="129"/>
      <point x="542" y="127"/>
      <point x="542" y="126" type="curve"/>
      <point x="477" y="76"/>
      <point x="404" y="43"/>
      <point x="334" y="43" type="curve" smooth="yes"/>
      <point x="195" y="43"/>
      <point x="115" y="152"/>
      <point x="115" y="291" type="curve" smooth="yes"/>
      <point x="115" y="370"/>
      <point x="142" y="462"/>
      <point x="189" y="549" type="curve"/>
      <point x="236" y="505"/>
      <point x="302" y="479"/>
      <point x="373" y="479" type="curve" smooth="yes"/>
      <point x="661" y="479"/>
      <point x="855" y="688"/>
      <point x="855" y="798" type="curve" smooth="yes"/>
      <point x="855" y="869"/>
      <point x="800" y="919"/>
      <point x="721" y="919" type="curve" smooth="yes"/>
      <point x="484" y="916"/>
      <point x="286" y="753"/>
      <point x="180" y="572" type="curve"/>
      <point x="152" y="608"/>
      <point x="136" y="653"/>
      <point x="136" y="705" type="curve" smooth="yes"/>
      <point x="136" y="809"/>
      <point x="204" y="904"/>
      <point x="308" y="904" type="curve" smooth="yes"/>
      <point x="325" y="904"/>
      <point x="340" y="897"/>
      <point x="352" y="886" type="curve"/>
      <point x="355" y="886" type="line"/>
      <point x="341" y="900"/>
      <point x="323" y="908"/>
      <point x="304" y="908" type="curve" smooth="yes"/>
      <point x="200" y="908"/>
      <point x="121" y="815"/>
      <point x="121" y="708" type="curve" smooth="yes"/>
      <point x="121" y="651"/>
      <point x="142" y="602"/>
      <point x="175" y="564" type="curve"/>
      <point x="126" y="477"/>
      <point x="99" y="386"/>
      <point x="99" y="307" type="curve" smooth="yes"/>
      <point x="99" y="166"/>
      <point x="173" y="38"/>
      <point x="337" y="38" type="curve" smooth="yes"/>
      <point x="408" y="38"/>
      <point x="478" y="66"/>
      <point x="540" y="110" type="curve"/>
      <point x="527" y="12"/>
      <point x="507" y="-87"/>
      <point x="456" y="-196" type="curve" smooth="yes"/>
      <point x="390" y="-336"/>
      <point x="244" y="-457"/>
      <point x="95" y="-457" type="curve" smooth="yes"/>
      <point x="-37" y="-457"/>
      <point x="-143" y="-346"/>
      <point x="-139" y="-203" type="curve" smooth="yes"/>
      <point x="-135" y="-59"/>
      <point x="-18" y="52"/>
      <point x="100" y="52" type="curve" smooth="yes"/>
      <point x="186" y="52"/>
      <point x="240" y="-10"/>
      <point x="238" y="-77" type="curve" smooth="yes"/>
      <point x="236" y="-143"/>
      <point x="181" y="-227"/>
      <point x="97" y="-227" type="curve" smooth="yes"/>
      <point x="85" y="-227"/>
      <point x="42" y="-225"/>
      <point x="28" y="-184" type="curve"/>
      <point x="22" y="-186" type="line"/>
      <point x="40" y="-225"/>
      <point x="76" y="-231"/>
      <point x="100" y="-231" type="curve" smooth="yes"/>
      <point x="190" y="-231"/>
      <point x="246" y="-146"/>
      <point x="248" y="-78" type="curve" smooth="yes"/>
      <point x="250" y="-4"/>
      <point x="190" y="56"/>
      <point x="100" y="56" type="curve" smooth="yes"/>
      <point x="-23" y="56"/>
      <point x="-152" y="-52"/>
      <point x="-156" y="-200" type="curve" smooth="yes"/>
      <point x="-160" y="-348"/>
      <point x="-43" y="-461"/>
      <point x="100" y="-461" type="curve" smooth="yes"/>
      <point x="259" y="-461"/>
      <point x="416" y="-328"/>
      <point x="475" y="-206" type="curve" smooth="yes"/>
      <point x="529" y="-91"/>
      <point x="540" y="13"/>
      <point x="548" y="116" type="curve"/>
      <point x="637" y="180"/>
      <point x="708" y="274"/>
      <point x="741" y="353" type="curve" smooth="yes"/>
      <point x="762" y="398"/>
      <point x="779" y="447"/>
      <point x="779" y="480" type="curve" smooth="yes"/>
      <point x="779" y="514"/>
      <point x="764" y="532"/>
      <point x="743" y="532" type="curve" smooth="yes"/>
      <point x="658" y="532"/>
      <point x="571" y="364"/>
    </contour>
    <contour>
      <point x="841" y="813" type="curve" smooth="yes"/>
      <point x="841" y="703"/>
      <point x="657" y="483"/>
      <point x="374" y="483" type="curve" smooth="yes"/>
      <point x="303" y="483"/>
      <point x="238" y="510"/>
      <point x="194" y="557" type="curve"/>
      <point x="298" y="744"/>
      <point x="494" y="913"/>
      <point x="721" y="915" type="curve" smooth="yes"/>
      <point x="790" y="914"/>
      <point x="841" y="873"/>
    </contour>
    <contour>
      <point x="727" y="357" type="curve" smooth="yes"/>
      <point x="696" y="281"/>
      <point x="630" y="194"/>
      <point x="550" y="131" type="curve"/>
      <point x="550" y="134" type="line"/>
      <point x="566" y="332"/>
      <point x="680" y="528"/>
      <point x="743" y="528" type="curve" smooth="yes"/>
      <point x="758" y="528"/>
      <point x="763" y="515"/>
      <point x="763" y="489" type="curve" smooth="yes"/>
      <point x="763" y="439"/>
      <point x="742" y="395"/>
    </contour>
    <contour>
      <point x="860" y="1172" type="line"/>
      <point x="854" y="1143"/>
      <point x="823" y="1119"/>
      <point x="796" y="1119" type="curve" smooth="yes"/>
      <point x="775" y="1119"/>
      <point x="761" y="1132"/>
      <point x="761" y="1150" type="curve" smooth="yes"/>
      <point x="761" y="1158"/>
      <point x="762" y="1164"/>
      <point x="766" y="1172" type="curve"/>
      <point x="749" y="1172" type="line"/>
      <point x="745" y="1165"/>
      <point x="744" y="1158"/>
      <point x="744" y="1151" type="curve" smooth="yes"/>
      <point x="744" y="1130"/>
      <point x="765" y="1115"/>
      <point x="796" y="1115" type="curve" smooth="yes"/>
      <point x="833" y="1115"/>
      <point x="871" y="1139"/>
      <point x="877" y="1172" type="curve"/>
    </contour>
  </outline>
</glyph>
<glyph name="iogonek" format="2">
  <advance width="187"/>
  <unicode hex="012F"/>
  <outline>
    <contour>
      <point x="123" y="550" type="line"/>
      <point x="0" y="282" type="line"/>
      <point x="-55" y="161" type="line" smooth="yes"/>
      <point x="-95" y="72"/>
      <point x="-77" y="0"/>
      <point x="-35" y="0" type="curve" smooth="yes"/>
      <point x="-34" y="0" type="line"/>
      <point x="-88" y="-26"/>
      <point x="-109" y="-60"/>
      <point x="-109" y="-90" type="curve" smooth="yes"/>
      <point x="-109" y="-118"/>
      <point x="-87" y="-142"/>
      <point x="-54" y="-142" type="curve" smooth="yes"/>
      <point x="-45" y="-142"/>
      <point x="-36" y="-140"/>
      <point x="-27" y="-137" type="curve"/>
      <point x="-29" y="-133" type="line"/>
      <point x="-38" y="-136"/>
      <point x="-47" y="-138"/>
      <point x="-54" y="-138" type="curve" smooth="yes"/>
      <point x="-80" y="-138"/>
      <point x="-95" y="-119"/>
      <point x="-95" y="-96" type="curve" smooth="yes"/>
      <point x="-95" y="-63"/>
      <point x="-76" y="-22"/>
      <point x="-18" y="3" type="curve"/>
      <point x="49" y="23"/>
      <point x="134" y="156"/>
      <point x="190" y="280" type="curve"/>
      <point x="187" y="282" type="line"/>
      <point x="128" y="154"/>
      <point x="32" y="4"/>
      <point x="-34" y="4" type="curve" smooth="yes"/>
      <point x="-73" y="4"/>
      <point x="-83" y="72"/>
      <point x="-46" y="152" type="curve" smooth="yes"/>
      <point x="144" y="550" type="line"/>
    </contour>
    <contour>
      <point x="197" y="735" type="curve"/>
      <point x="195" y="726"/>
      <point x="199" y="717"/>
      <point x="210" y="717" type="curve" smooth="yes"/>
      <point x="220" y="717"/>
      <point x="231" y="724"/>
      <point x="234" y="735" type="curve"/>
      <point x="238" y="746"/>
      <point x="232" y="754"/>
      <point x="222" y="754" type="curve" smooth="yes"/>
      <point x="211" y="754"/>
      <point x="201" y="746"/>
    </contour>
  </outline>
</glyph>
<glyph name="lcommaaccent" format="2">
  <advance width="187"/>
  <unicode hex="013C"/>
  <outline>
    <contour>
      <point x="-78" y="-138" type="curve" smooth="yes"/>
      <point x="-93" y="-138"/>
      <point x="-107" y="-151"/>
      <point x="-107" y="-165" type="curve" smooth="yes"/>
      <point x="-107" y="-173"/>
      <point x="-103" y="-181"/>
      <point x="-92" y="-181" type="curve" smooth="yes"/>
      <point x="-90" y="-181"/>
      <point x="-86" y="-181"/>
      <point x="-84" y="-180" type="curve"/>
      <point x="-83" y="-183"/>
      <point x="-81" y="-187"/>
      <point x="-85" y="-194" type="curve"/>
      <point x="-99" y="-214"/>
      <point x="-114" y="-232"/>
      <point x="-134" y="-246" type="curve"/>
      <point x="-132" y="-250" type="line"/>
      <point x="-103" y="-230"/>
      <point x="-62" y="-189"/>
      <point x="-62" y="-159" type="curve" smooth="yes"/>
      <point x="-62" y="-146"/>
      <point x="-70" y="-138"/>
    </contour>
    <contour>
      <point x="30" y="311" type="line"/>
      <point x="62" y="379" type="line" smooth="yes"/>
      <point x="140" y="546"/>
      <point x="217" y="714"/>
      <point x="333" y="830" type="curve" smooth="yes"/>
      <point x="334" y="831" type="line"/>
      <point x="505" y="750"/>
      <point x="678" y="652"/>
      <point x="858" y="652" type="curve" smooth="yes"/>
      <point x="978" y="652"/>
      <point x="1045" y="721"/>
      <point x="1045" y="796" type="curve" smooth="yes"/>
      <point x="1045" y="886"/>
      <point x="945" y="985"/>
      <point x="743" y="991" type="curve" smooth="yes"/>
      <point x="724" y="991" type="line" smooth="yes"/>
      <point x="559" y="991"/>
      <point x="432" y="933"/>
      <point x="334" y="846" type="curve"/>
      <point x="328" y="840" type="line"/>
      <point x="208" y="895"/>
      <point x="87" y="942"/>
      <point x="-32" y="942" type="curve" smooth="yes"/>
      <point x="-249" y="942"/>
      <point x="-338" y="819"/>
      <point x="-338" y="727" type="curve" smooth="yes"/>
      <point x="-338" y="685"/>
      <point x="-311" y="630"/>
      <point x="-252" y="630" type="curve" smooth="yes"/>
      <point x="-251" y="630"/>
      <point x="-248" y="631"/>
      <point x="-246" y="631" type="curve"/>
      <point x="-246" y="633" type="line"/>
      <point x="-250" y="633" type="line" smooth="yes"/>
      <point x="-307" y="633"/>
      <point x="-330" y="682"/>
      <point x="-330" y="722" type="curve" smooth="yes"/>
      <point x="-330" y="812"/>
      <point x="-234" y="935"/>
      <point x="-18" y="935" type="curve" smooth="yes"/>
      <point x="95" y="935"/>
      <point x="208" y="890"/>
      <point x="323" y="836" type="curve"/>
      <point x="208" y="728"/>
      <point x="145" y="592"/>
      <point x="64" y="419" type="curve" smooth="yes"/>
      <point x="11" y="307" type="line"/>
      <point x="-55" y="161" type="line" smooth="yes"/>
      <point x="-95" y="72"/>
      <point x="-77" y="0"/>
      <point x="-35" y="0" type="curve" smooth="yes"/>
      <point x="34" y="0"/>
      <point x="129" y="146"/>
      <point x="190" y="280" type="curve"/>
      <point x="187" y="282" type="line"/>
      <point x="128" y="154"/>
      <point x="32" y="4"/>
      <point x="-34" y="4" type="curve" smooth="yes"/>
      <point x="-73" y="4"/>
      <point x="-84" y="72"/>
      <point x="-46" y="152" type="curve" smooth="yes"/>
    </contour>
    <contour>
      <point x="743" y="986" type="line" smooth="yes"/>
      <point x="940" y="982"/>
      <point x="1029" y="888"/>
      <point x="1029" y="801" type="curve" smooth="yes"/>
      <point x="1029" y="727"/>
      <point x="963" y="660"/>
      <point x="845" y="660" type="curve" smooth="yes"/>
      <point x="682" y="660"/>
      <point x="511" y="755"/>
      <point x="338" y="835" type="curve"/>
      <point x="435" y="929"/>
      <point x="561" y="986"/>
      <point x="730" y="986" type="curve" smooth="yes"/>
    </contour>
  </outline>
</glyph>
<glyph name="quotedblbase" format="2">
  <advance width="278"/>
  <unicode hex="201E"/>
  <outline>
    <contour>
      <point x="38" y="40" type="curve" smooth="yes"/>
      <point x="23" y="40"/>
      <point x="9" y="27"/>
      <point x="9" y="13" type="curve" smooth="yes"/>
      <point x="9" y="5"/>
      <point x="13" y="-3"/>
      <point x="24" y="-3" type="curve" smooth="yes"/>
      <point x="26" y="-3"/>
      <point x="30" y="-3"/>
      <point x="32" y="-2" type="curve"/>
      <point x="33" y="-5"/>
      <point x="35" y="-9"/>
      <point x="31" y="-16" type="curve"/>
      <point x="17" y="-36"/>
      <point x="2" y="-54"/>
      <point x="-18" y="-68" type="curve"/>
      <point x="-16" y="-72" type="line"/>
      <point x="13" y="-52"/>
      <point x="54" y="-11"/>
      <point x="54" y="19" type="curve" smooth="yes"/>
      <point x="54" y="32"/>
      <point x="46" y="40"/>
    </contour>
    <contour>
      <point x="102" y="40" type="curve" smooth="yes"/>
      <point x="87" y="40"/>
      <point x="73" y="27"/>
      <point x="73" y="13" type="curve" smooth="yes"/>
      <point x="73" y="5"/>
      <point x="77" y="-3"/>
      <point x="88" y="-3" type="curve" smooth="yes"/>
      <point x="90" y="-3"/>
      <point x="94" y="-3"/>
      <point x="96" y="-2" type="curve"/>
      <point x="97" y="-5"/>
      <point x="99" y="-9"/>
      <point x="95" y="-16" type="curve"/>
      <point x="81" y="-36"/>
      <point x="66" y="-54"/>
      <point x="46" y="-68" type="curve"/>
      <point x="48" y="-72" type="line"/>
      <point x="77" y="-52"/>
      <point x="118" y="-11"/>
      <point x="118" y="19" type="curve" smooth="yes"/>
      <point x="118" y="32"/>
      <point x="110" y="40"/>
    </contour>
  </outline>
</glyph>
<glyph name="daggerdbl" format="2">
  <advance width="523"/>
  <unicode hex="2021"/>
  <outline>
    <contour>
      <point x="264" y="-60" type="line"/>
      <point x="264" y="203" type="line"/>
      <point x="263" y="203" type="line"/>
      <point x="247" y="206"/>
      <point x="236" y="220"/>
      <point x="236" y="232" type="curve" smooth="yes"/>
      <point x="236" y="248"/>
      <point x="250" y="262"/>
      <point x="266" y="262" type="curve" smooth="yes"/>
      <point x="283" y="262"/>
      <point x="296" y="248"/>
      <point x="296" y="232" type="curve" smooth="yes"/>
      <point x="296" y="218"/>
      <point x="284" y="206"/>
      <point x="268" y="203" type="curve"/>
      <point x="267" y="203" type="line"/>
      <point x="267" y="-60" type="line"/>
      <point x="272" y="-60" type="line"/>
      <point x="272" y="2"/>
      <point x="359" y="87"/>
      <point x="359" y="253" type="curve" smooth="yes"/>
      <point x="359" y="377"/>
      <point x="311" y="489"/>
      <point x="305" y="618" type="curve"/>
      <point x="300" y="618" type="line"/>
      <point x="305" y="494"/>
      <point x="354" y="381"/>
      <point x="354" y="253" type="curve" smooth="yes"/>
      <point x="354" y="112"/>
      <point x="290" y="32"/>
      <point x="272" y="-27" type="curve"/>
      <point x="272" y="199" type="line"/>
      <point x="288" y="204"/>
      <point x="302" y="217"/>
      <point x="302" y="232" type="curve" smooth="yes"/>
      <point x="302" y="251"/>
      <point x="285" y="268"/>
      <point x="266" y="268" type="curve" smooth="yes"/>
      <point x="247" y="268"/>
      <point x="231" y="251"/>
      <point x="231" y="232" type="curve" smooth="yes"/>
      <point x="231" y="217"/>
      <point x="243" y="204"/>
      <point x="259" y="199" type="curve"/>
      <point x="259" y="-27" type="line"/>
      <point x="240" y="32"/>
      <point x="177" y="112"/>
      <point x="177" y="253" type="curve" smooth="yes"/>
      <point x="177" y="381"/>
      <point x="226" y="494"/>
      <point x="231" y="618" type="curve"/>
      <point x="226" y="618" type="line"/>
      <point x="220" y="489"/>
      <point x="172" y="377"/>
      <point x="172" y="253" type="curve" smooth="yes"/>
      <point x="172" y="87"/>
      <point x="259" y="2"/>
      <point x="259" y="-60" type="curve"/>
    </contour>
    <contour>
      <point x="265" y="654" type="curve" smooth="yes"/>
      <point x="291" y="654"/>
      <point x="321" y="648"/>
      <point x="332" y="637" type="curve"/>
      <point x="334" y="639" type="line"/>
      <point x="321" y="653"/>
      <point x="291" y="660"/>
      <point x="265" y="660" type="curve" smooth="yes"/>
      <point x="239" y="660"/>
      <point x="209" y="653"/>
      <point x="195" y="639" type="curve"/>
      <point x="198" y="637" type="line"/>
      <point x="209" y="648"/>
      <point x="239" y="654"/>
    </contour>
    <contour>
      <point x="265" y="632" type="curve" smooth="yes"/>
      <point x="291" y="632"/>
      <point x="321" y="625"/>
      <point x="332" y="614" type="curve"/>
      <point x="334" y="617" type="line"/>
      <point x="321" y="631"/>
      <point x="291" y="637"/>
      <point x="265" y="637" type="curve" smooth="yes"/>
      <point x="239" y="637"/>
      <point x="209" y="631"/>
      <point x="195" y="617" type="curve"/>
      <point x="198" y="614" type="line"/>
      <point x="209" y="625"/>
      <point x="239" y="632"/>
    </contour>
    <contour>
      <point x="265" y="677" type="curve" smooth="yes"/>
      <point x="291" y="677"/>
      <point x="321" y="670"/>
      <point x="332" y="659" type="curve"/>
      <point x="334" y="662" type="line"/>
      <point x="321" y="675"/>
      <point x="291" y="682"/>
      <point x="265" y="682" type="curve" smooth="yes"/>
      <point x="239" y="682"/>
      <point x="209" y="675"/>
      <point x="195" y="662" type="curve"/>
      <point x="198" y="659" type="line"/>
      <point x="209" y="670"/>
      <point x="239" y="677"/>
    </contour>
    <contour>
      <point x="345" y="-129" type="line"/>
      <point x="281" y="-127"/>
      <point x="272" y="-89"/>
      <point x="272" y="-83" type="curve"/>
      <point x="258" y="-83" type="line"/>
      <point x="258" y="-98"/>
      <point x="295" y="-131"/>
      <point x="345" y="-131" type="curve"/>
    </contour>
  </outline>
</glyph>
<glyph name="Euro" format="2">
  <advance width="532"/>
  <unicode hex="20AC"/>
  <outline>
    <contour>
      <point x="32" y="417" type="line"/>
      <point x="126" y="417" type="line"/>
      <point x="112" y="394"/>
      <point x="99" y="370"/>
      <point x="88" y="347" type="curve"/>
      <point x="-1" y="347" type="line"/>
      <point x="-1" y="343" type="line"/>
      <point x="86" y="343" type="line"/>
      <point x="61" y="286"/>
      <point x="47" y="228"/>
      <point x="47" y="177" type="curve" smooth="yes"/>
      <point x="47" y="73"/>
      <point x="111" y="-39"/>
      <point x="246" y="-39" type="curve" smooth="yes"/>
      <point x="401" y="-39"/>
      <point x="515" y="101"/>
      <point x="515" y="213" type="curve" smooth="yes"/>
      <point x="513" y="276"/>
      <point x="469" y="347"/>
      <point x="375" y="347" type="curve" smooth="yes"/>
      <point x="276" y="347"/>
      <point x="185" y="273"/>
      <point x="185" y="174" type="curve" smooth="yes"/>
      <point x="185" y="109"/>
      <point x="232" y="74"/>
      <point x="281" y="74" type="curve" smooth="yes"/>
      <point x="338" y="74"/>
      <point x="393" y="121"/>
      <point x="393" y="170" type="curve" smooth="yes"/>
      <point x="393" y="184"/>
      <point x="387" y="194"/>
      <point x="379" y="202" type="curve"/>
      <point x="378" y="202" type="line"/>
      <point x="383" y="192"/>
      <point x="387" y="182"/>
      <point x="387" y="168" type="curve" smooth="yes"/>
      <point x="387" y="124"/>
      <point x="336" y="76"/>
      <point x="283" y="76" type="curve" smooth="yes"/>
      <point x="243" y="76"/>
      <point x="194" y="102"/>
      <point x="194" y="175" type="curve" smooth="yes"/>
      <point x="194" y="271"/>
      <point x="276" y="343"/>
      <point x="373" y="343" type="curve" smooth="yes"/>
      <point x="468" y="343"/>
      <point x="505" y="275"/>
      <point x="505" y="213" type="curve" smooth="yes"/>
      <point x="505" y="99"/>
      <point x="385" y="-35"/>
      <point x="245" y="-35" type="curve" smooth="yes"/>
      <point x="126" y="-35"/>
      <point x="60" y="59"/>
      <point x="60" y="171" type="curve" smooth="yes"/>
      <point x="60" y="224"/>
      <point x="75" y="283"/>
      <point x="102" y="343" type="curve"/>
      <point x="221" y="343" type="line"/>
      <point x="221" y="347" type="line"/>
      <point x="104" y="347" type="line"/>
      <point x="115" y="370"/>
      <point x="128" y="394"/>
      <point x="142" y="417" type="curve"/>
      <point x="254" y="417" type="line"/>
      <point x="254" y="421" type="line"/>
      <point x="145" y="421" type="line"/>
      <point x="229" y="552"/>
      <point x="366" y="663"/>
      <point x="518" y="663" type="curve" smooth="yes"/>
      <point x="627" y="663"/>
      <point x="689" y="604"/>
      <point x="691" y="536" type="curve" smooth="yes"/>
      <point x="691" y="472"/>
      <point x="638" y="387"/>
      <point x="542" y="387" type="curve" smooth="yes"/>
      <point x="469" y="387"/>
      <point x="437" y="436"/>
      <point x="437" y="478" type="curve" smooth="yes"/>
      <point x="437" y="520"/>
      <point x="469" y="573"/>
      <point x="528" y="573" type="curve" smooth="yes"/>
      <point x="577" y="573"/>
      <point x="601" y="538"/>
      <point x="601" y="512" type="curve" smooth="yes"/>
      <point x="601" y="499"/>
      <point x="594" y="479"/>
      <point x="576" y="470" type="curve"/>
      <point x="578" y="468" type="line"/>
      <point x="598" y="476"/>
      <point x="605" y="501"/>
      <point x="605" y="515" type="curve" smooth="yes"/>
      <point x="605" y="542"/>
      <point x="576" y="577"/>
      <point x="528" y="577" type="curve" smooth="yes"/>
      <point x="464" y="577"/>
      <point x="429" y="522"/>
      <point x="429" y="478" type="curve" smooth="yes"/>
      <point x="429" y="440"/>
      <point x="462" y="384"/>
      <point x="542" y="384" type="curve" smooth="yes"/>
      <point x="640" y="384"/>
      <point x="700" y="466"/>
      <point x="700" y="529" type="curve" smooth="yes"/>
      <point x="698" y="585"/>
      <point x="653" y="666"/>
      <point x="518" y="666" type="curve" smooth="yes"/>
      <point x="356" y="666"/>
      <point x="214" y="553"/>
      <point x="129" y="421" type="curve"/>
      <point x="32" y="421" type="line"/>
    </contour>
  </outline>
</glyph>
<glyph name="trademark" format="2">
  <advance width="596"/>
  <unicode hex="2122"/>
  <outline>
    <contour>
      <point x="499" y="839" type="line"/>
      <point x="494" y="839" type="line"/>
      <point x="412" y="720" type="line"/>
      <point x="330" y="839" type="line"/>
      <point x="325" y="839" type="line"/>
      <point x="325" y="683" type="line"/>
      <point x="329" y="683" type="line"/>
      <point x="329" y="835" type="line"/>
      <point x="412" y="713" type="line"/>
      <point x="495" y="835" type="line"/>
      <point x="495" y="683" type="line"/>
      <point x="499" y="683" type="line"/>
    </contour>
    <contour>
      <point x="116" y="835" type="line"/>
      <point x="205" y="835" type="line"/>
      <point x="205" y="683" type="line"/>
      <point x="209" y="683" type="line"/>
      <point x="209" y="835" type="line"/>
      <point x="298" y="835" type="line"/>
      <point x="298" y="839" type="line"/>
      <point x="116" y="839" type="line"/>
    </contour>
  </outline>
</glyph>
<glyph name="f_f" format="2">
  <advance width="430"/>
  <unicode hex="FB00"/>
  <outline>
    <contour>
      <point x="106" y="508" type="line"/>
      <point x="95" y="487" type="line"/>
      <point x="18" y="487" type="line"/>
      <point x="18" y="483" type="line"/>
      <point x="93" y="483" type="line"/>
      <point x="31" y="360"/>
      <point x="-25" y="234"/>
      <point x="-72" y="128" type="curve" smooth="yes"/>
      <point x="-138" y="-15"/>
      <point x="-290" y="-332"/>
      <point x="-461" y="-484" type="curve"/>
      <point x="-476" y="-489" type="line"/>
      <point x="-593" y="-521"/>
      <point x="-713" y="-520"/>
      <point x="-713" y="-550" type="curve" smooth="yes"/>
      <point x="-713" y="-567"/>
      <point x="-693" y="-579"/>
      <point x="-645" y="-579" type="curve" smooth="yes"/>
      <point x="-573" y="-579"/>
      <point x="-499" y="-539"/>
      <point x="-436" y="-484" type="curve"/>
      <point x="-305" y="-446"/>
      <point x="-157" y="-381"/>
      <point x="-56" y="-253" type="curve" smooth="yes"/>
      <point x="118" y="-32"/>
      <point x="182" y="219"/>
      <point x="317" y="483" type="curve"/>
      <point x="468" y="483" type="line"/>
      <point x="468" y="487" type="line"/>
      <point x="319" y="487" type="line"/>
      <point x="336" y="522"/>
      <point x="356" y="559"/>
      <point x="377" y="596" type="curve"/>
      <point x="515" y="667"/>
      <point x="611" y="797"/>
      <point x="621" y="879" type="curve" smooth="yes"/>
      <point x="622" y="886"/>
      <point x="621" y="894"/>
      <point x="621" y="901" type="curve"/>
      <point x="655" y="924"/>
      <point x="688" y="938"/>
      <point x="721" y="938" type="curve" smooth="yes"/>
      <point x="735" y="938"/>
      <point x="743" y="935"/>
      <point x="752" y="932" type="curve" smooth="yes"/>
      <point x="771" y="926"/>
      <point x="776" y="951"/>
      <point x="740" y="951" type="curve" smooth="yes"/>
      <point x="703" y="951"/>
      <point x="662" y="935"/>
      <point x="620" y="907" type="curve"/>
      <point x="613" y="948"/>
      <point x="580" y="979"/>
      <point x="541" y="979" type="curve" smooth="yes"/>
      <point x="389" y="979"/>
      <point x="254" y="782"/>
      <point x="129" y="552" type="curve"/>
      <point x="-2" y="569"/>
      <point x="-95" y="656"/>
      <point x="-80" y="787" type="curve" smooth="yes"/>
      <point x="-67" y="912"/>
      <point x="30" y="1002"/>
      <point x="135" y="1002" type="curve" smooth="yes"/>
      <point x="209" y="1002"/>
      <point x="267" y="946"/>
      <point x="259" y="881" type="curve" smooth="yes"/>
      <point x="252" y="821"/>
      <point x="211" y="760"/>
      <point x="133" y="760" type="curve" smooth="yes"/>
      <point x="119" y="760"/>
      <point x="81" y="760"/>
      <point x="67" y="785" type="curve"/>
      <point x="62" y="783" type="line"/>
      <point x="79" y="756"/>
      <point x="119" y="756"/>
      <point x="133" y="756" type="curve" smooth="yes"/>
      <point x="216" y="756"/>
      <point x="262" y="818"/>
      <point x="268" y="879" type="curve" smooth="yes"/>
      <point x="277" y="947"/>
      <point x="215" y="1006"/>
      <point x="136" y="1006" type="curve" smooth="yes"/>
      <point x="24" y="1006"/>
      <point x="-80" y="915"/>
      <point x="-94" y="789" type="curve" smooth="yes"/>
      <point x="-109" y="655"/>
      <point x="-10" y="565"/>
      <point x="127" y="548" type="curve"/>
    </contour>
    <contour>
      <point x="308" y="483" type="line"/>
      <point x="165" y="208"/>
      <point x="121" y="17"/>
      <point x="-67" y="-233" type="curve" smooth="yes"/>
      <point x="-167" y="-366"/>
      <point x="-300" y="-434"/>
      <point x="-424" y="-473" type="curve"/>
      <point x="-253" y="-317"/>
      <point x="-121" y="-18"/>
      <point x="-55" y="125" type="curve" smooth="yes"/>
      <point x="-6" y="231"/>
      <point x="45" y="360"/>
      <point x="105" y="483" type="curve"/>
    </contour>
    <contour>
      <point x="539" y="975" type="curve" smooth="yes"/>
      <point x="576" y="975"/>
      <point x="609" y="944"/>
      <point x="611" y="900" type="curve"/>
      <point x="532" y="843"/>
      <point x="447" y="738"/>
      <point x="367" y="597" type="curve"/>
      <point x="310" y="568"/>
      <point x="246" y="549"/>
      <point x="177" y="549" type="curve" smooth="yes"/>
      <point x="164" y="549"/>
      <point x="151" y="550"/>
      <point x="139" y="551" type="curve"/>
      <point x="259" y="780"/>
      <point x="395" y="975"/>
    </contour>
    <contour>
      <point x="611" y="894" type="curve"/>
      <point x="611" y="886" type="line"/>
      <point x="603" y="807"/>
      <point x="513" y="679"/>
      <point x="382" y="605" type="curve"/>
      <point x="449" y="721"/>
      <point x="530" y="834"/>
    </contour>
    <contour>
      <point x="117" y="508" type="line"/>
      <point x="137" y="547" type="line"/>
      <point x="150" y="545"/>
      <point x="163" y="545"/>
      <point x="177" y="545" type="curve" smooth="yes"/>
      <point x="243" y="545"/>
      <point x="306" y="562"/>
      <point x="362" y="589" type="curve"/>
      <point x="344" y="557"/>
      <point x="327" y="523"/>
      <point x="310" y="487" type="curve"/>
      <point x="107" y="487" type="line"/>
    </contour>
    <contour>
      <point x="-697" y="-552" type="curve" smooth="yes"/>
      <point x="-697" y="-525"/>
      <point x="-589" y="-524"/>
      <point x="-475" y="-495" type="curve"/>
      <point x="-474" y="-494"/>
      <point x="-473" y="-494"/>
      <point x="-472" y="-494" type="curve"/>
      <point x="-526" y="-540"/>
      <point x="-589" y="-574"/>
      <point x="-645" y="-574" type="curve" smooth="yes"/>
      <point x="-685" y="-574"/>
      <point x="-697" y="-566"/>
    </contour>
  </outline>
</glyph>
<glyph name="init" format="2">
  <advance width="280"/>
  <outline>
    <contour>
      <point x="280" y="282" type="line"/>
      <point x="233" y="179"/>
      <point x="197" y="71"/>
      <point x="197" y="-42" type="curve" smooth="yes"/>
      <point x="197" y="-140"/>
      <point x="229" y="-222"/>
      <point x="304" y="-252" type="curve" smooth="yes"/>
      <point x="320" y="-258"/>
      <point x="342" y="-261"/>
      <point x="362" y="-261" type="curve" smooth="yes"/>
      <point x="418" y="-261"/>
      <point x="480" y="-217"/>
      <point x="480" y="-158" type="curve" smooth="yes"/>
      <point x="480" y="-131"/>
      <point x="468" y="-107"/>
      <point x="445" y="-108" type="curve"/>
      <point x="445" y="-112" type="line"/>
      <point x="465" y="-111"/>
      <point x="476" y="-133"/>
      <point x="476" y="-158" type="curve" smooth="yes"/>
      <point x="476" y="-220"/>
      <point x="409" y="-257"/>
      <point x="362" y="-257" type="curve" smooth="yes"/>
      <point x="243" y="-257"/>
      <point x="203" y="-133"/>
      <point x="203" y="-36" type="curve" smooth="yes"/>
      <point x="203" y="79"/>
      <point x="236" y="178"/>
      <point x="283" y="280" type="curve"/>
    </contour>
  </outline>
</glyph>
